<?xml version="1.0" encoding="utf-8"?>
<!-- Generator: Adobe Illustrator 24.0.1, SVG Export Plug-In . SVG Version: 6.00 Build 0)  -->
<svg version="1.1" id="Capa_1" xmlns="http://www.w3.org/2000/svg" xmlns:xlink="http://www.w3.org/1999/xlink" x="0px" y="0px"
	 viewBox="0 0 385 385" style="enable-background:new 0 0 385 385;" xml:space="preserve">
<style type="text/css">
	.st0{fill:#FFFFFF;}
</style>
<g>
	<path class="st0" d="M230.9,115.7h-77.7c-22.1,0-40.2,18-40.2,40.2v77.7c0,22.1,18,40.2,40.2,40.2h77.7c22.1,0,40.2-18,40.2-40.2
		v-77.7C271,133.7,253,115.7,230.9,115.7z M192.8,242.6c-26.4,0-47.9-21.5-47.9-47.9c0-26.4,21.5-47.9,47.9-47.9
		c26.4,0,47.9,21.5,47.9,47.9C240.7,221.1,219.2,242.6,192.8,242.6z M243.5,154.9c-6.3,0-11.4-5.1-11.4-11.4
		c0-6.3,5.1-11.4,11.4-11.4c6.3,0,11.4,5.1,11.4,11.4C254.9,149.8,249.8,154.9,243.5,154.9z"/>
	<path class="st0" d="M192.8,164c-16.9,0-30.7,13.8-30.7,30.7c0,16.9,13.8,30.7,30.7,30.7c16.9,0,30.7-13.8,30.7-30.7
		C223.5,177.7,209.7,164,192.8,164z"/>
	<path class="st0" d="M192,28.9c-91.7,0-166,74.3-166,166s74.3,166,166,166c91.7,0,166-74.3,166-166S283.7,28.9,192,28.9z
		 M289.3,233.5c0,32.2-26.2,58.5-58.5,58.5h-77.7c-32.2,0-58.5-26.2-58.5-58.5v-77.7c0-32.2,26.2-58.5,58.5-58.5h77.7
		c32.2,0,58.5,26.2,58.5,58.5V233.5z"/>
</g>
</svg>
