<?xml version="1.0" encoding="utf-8"?>
<!-- Generator: Adobe Illustrator 24.0.1, SVG Export Plug-In . SVG Version: 6.00 Build 0)  -->
<svg version="1.1" id="Capa_1" xmlns="http://www.w3.org/2000/svg" xmlns:xlink="http://www.w3.org/1999/xlink" x="0px" y="0px"
	 viewBox="0 0 385 385" style="enable-background:new 0 0 385 385;" xml:space="preserve">
<style type="text/css">
	.st0{fill:#FFFFFF;}
</style>
<g>
	<path class="st0" d="M221.1,188.7l-46.3-25.2c-1.9-1.1-8.4,0.3-8.4,2.5v49.1c0,2.2,6.4,3.5,8.3,2.5l48.3-23.9
		C225,192.6,223,189.8,221.1,188.7z"/>
	<path class="st0" d="M192.5,14.9C95.6,14.9,17,93.5,17,190.4c0,96.9,78.6,175.5,175.5,175.5c96.9,0,175.5-78.6,175.5-175.5
		C368,93.5,289.4,14.9,192.5,14.9z M286.5,215c0,23.3-18.9,42.1-42.1,42.1H136.6c-23.3,0-42.1-18.9-42.1-42.1v-50.1
		c0-23.3,18.9-42.1,42.1-42.1h107.8c23.3,0,42.1,18.9,42.1,42.1V215z"/>
</g>
</svg>
