<?xml version="1.0" encoding="utf-8"?>
<!-- Generator: Adobe Illustrator 24.0.1, SVG Export Plug-In . SVG Version: 6.00 Build 0)  -->
<svg version="1.1" id="Capa_1" xmlns="http://www.w3.org/2000/svg" xmlns:xlink="http://www.w3.org/1999/xlink" x="0px" y="0px"
	 viewBox="0 0 385 385" style="enable-background:new 0 0 385 385;" xml:space="preserve">
<style type="text/css">
	.st0{fill:#00DCFC;}
</style>
<g>
	<path class="st0" d="M238.3,156.3c2.6-10,6.5-18.8,11.6-26.6c10.6-16.1,24.5-24.2,41.9-24.2c8,0,15.5,1.6,22.5,4.7
		c6.9,3.1,14,7.8,21.1,14l8.2-10.1c-8.3-6.7-16.4-11.8-24.4-15.3c-8-3.4-16.8-5.2-26.4-5.2c-14.3,0-26.9,4.3-37.9,12.8
		s-19.4,20-25.2,34.5c-2,4.9-3.6,10-4.9,15.3h13.5V156.3z"/>
	<path class="st0" d="M336.1,222c-0.8,11.4-5.1,21.1-13,29.1c-8.7,8.8-20.1,13.2-34,13.2c-14.2,0-26.1-4.2-35.6-12.7
		c-9-8-13.8-17.9-14.2-29.7h-15.6c0.7,3.4,1.6,6.6,2.6,9.4c3.6,10.4,9.3,19.4,17,27.1c5.4,5.4,12,9.7,19.9,12.9
		c7.8,3.2,16.2,4.8,25.1,4.8c11.5,0,22-2.5,31.4-7.5s16.9-11.9,22.3-20.8c4.8-7.8,7.5-16.5,8-26h-13.9V222z"/>
	<path class="st0" d="M144.3,222c-2.5,6.7-5.6,12.7-9.2,18.1c-5,7.3-11.2,13.2-18.8,17.6c-7.6,4.4-15.8,6.6-24.6,6.6
		s-17.1-2.2-24.7-6.6c-7.6-4.4-13.9-10.3-19-17.7c-5-7.4-9-15.8-11.8-25.4c-2.8-9.5-4.2-19.4-4.2-29.7c0-8.3,0.9-16.4,2.6-24.2
		c1.7-7.8,4.3-15.1,7.8-21.7c3.4-6.6,7.5-12.5,12.2-17.5s10.2-8.9,16.5-11.8c6.3-2.8,13-4.2,20.2-4.2c8.9,0,17.1,2.2,24.7,6.6
		s13.9,10.3,19,17.7c5,7.3,9,15.8,11.8,25.4c0.1,0.4,0.2,0.7,0.3,1.1h14.2c-0.5-2.1-1.1-4.3-1.8-6.4c-3.4-11-8.2-20.7-14.4-29.1
		c-6.2-8.3-13.9-14.9-23.1-19.8c-9.2-4.9-19.3-7.3-30.2-7.3s-21,2.5-30.3,7.4c-9.3,5-17.1,11.6-23.3,19.9s-11,18-14.5,29.1
		c-3.5,11-5.2,22.6-5.2,34.8c0,12.3,1.7,24,5.2,35s8.2,20.7,14.4,29.1c6.2,8.3,13.8,15,23.1,19.9c9.2,4.9,19.3,7.4,30.2,7.4
		s21-2.5,30.3-7.4c9.3-5,17.1-11.6,23.3-20c5.8-7.8,10.3-16.7,13.8-26.8h-14.5V222z"/>
</g>
</svg>
