<?xml version="1.0" encoding="utf-8"?>
<!-- Generator: Adobe Illustrator 24.0.1, SVG Export Plug-In . SVG Version: 6.00 Build 0)  -->
<svg version="1.1" id="Capa_1" xmlns="http://www.w3.org/2000/svg" xmlns:xlink="http://www.w3.org/1999/xlink" x="0px" y="0px"
	 viewBox="0 0 385 385" style="enable-background:new 0 0 385 385;" xml:space="preserve">
<style type="text/css">
	.st0{fill:#0197D5;}
</style>
<path class="st0" d="M285.9,171.5c0.1,26.2-11.8,47.4-28.2,66.8c-17.6,20.9-34.5,42.4-51.7,63.6c-8.3,10.2-13.9,10.2-22.3-0.2
	c-19.2-23.8-38.6-47.4-57.6-71.2C102,200,96.4,166.3,113.8,131c17.1-34.6,46.4-51.2,84.8-50.6C246.6,81.3,286,122.9,285.9,171.5z
	 M240.5,170.7c-0.1-25-20.9-45.4-46.1-45.1c-24.7,0.2-44.8,20.6-44.9,45.4c-0.1,25.1,20.5,45.6,45.5,45.5
	C220.2,216.4,240.5,195.9,240.5,170.7z"/>
</svg>
