<?xml version="1.0" encoding="utf-8"?>
<!-- Generator: Adobe Illustrator 24.0.1, SVG Export Plug-In . SVG Version: 6.00 Build 0)  -->
<svg version="1.1" id="Capa_1" xmlns="http://www.w3.org/2000/svg" xmlns:xlink="http://www.w3.org/1999/xlink" x="0px" y="0px"
	 viewBox="0 0 385 385" style="enable-background:new 0 0 385 385;" xml:space="preserve">
<style type="text/css">
	.st0{fill:#0197D5;}
</style>
<path class="st0" d="M193.5,16.9c-96.4,0-174.6,78.2-174.6,174.6s78.2,174.6,174.6,174.6s174.6-78.2,174.6-174.6
	S289.9,16.9,193.5,16.9z M154.1,267.6h-33.8V159h33.8V267.6z M137.2,144.2c-10.8,0-19.6-8.8-19.6-19.6s8.8-19.6,19.6-19.6
	s19.6,8.8,19.6,19.6S148,144.2,137.2,144.2z M280.6,267.6h-33.7v-52.8c0-12.6-0.2-28.8-17.6-28.8c-17.6,0-20.3,13.7-20.3,27.9v53.7
	h-33.7V159h32.4v14.9h0.4c4.5-8.5,15.5-17.5,32-17.5c34.2,0,40.5,22.5,40.5,51.7V267.6z"/>
</svg>
