<?xml version="1.0" encoding="utf-8"?>
<!-- Generator: Adobe Illustrator 24.0.1, SVG Export Plug-In . SVG Version: 6.00 Build 0)  -->
<svg version="1.1" id="Capa_1" xmlns="http://www.w3.org/2000/svg" xmlns:xlink="http://www.w3.org/1999/xlink" x="0px" y="0px"
	 viewBox="0 0 385 385" style="enable-background:new 0 0 385 385;" xml:space="preserve">
<style type="text/css">
	.st0{fill:#0197D5;}
</style>
<path class="st0" d="M85.7,105.7c2.5-0.3,4.5-0.8,6.6-0.8c69.8,0,139.5,0,209.3,0c2.1,0,4.2,0.5,6.8,0.9c-5.1,4.8-9.6,9.1-14.2,13.4
	c-13.5,12.7-27,25.4-40.6,38.1c-13.1,12.4-26.1,24.9-39.5,37c-10.5,9.6-24.7,9.2-35-0.5c-13.2-12.4-26.4-24.8-39.6-37.2
	c-17.6-16.6-35.2-33.1-52.8-49.7C86.5,106.7,86.3,106.4,85.7,105.7z"/>
<path class="st0" d="M85.4,265.2c28.6-21.3,57.3-42.6,85.8-63.9c17.2,12.4,34.3,12.5,51.5,0c28.6,21.3,57.2,42.6,85.9,63.9
	c0,0.3,0,0.6-0.1,0.8c-2.7,0.3-5.4,0.8-8.1,0.8c-41.9,0.1-83.7,0-125.6,0c-27.1,0-54.2,0-81.4,0c-2.6,0-5.3-0.5-7.9-0.8
	C85.5,265.7,85.4,265.4,85.4,265.2z"/>
<path class="st0" d="M75.8,258.6c-0.8-3.9-2.1-7.1-2.1-10.3c-0.1-43.3-0.1-86.6,0-130c0-2.4,0.7-4.8,1.2-7.8
	c29.8,28,58.9,55.4,88.3,83C134.2,215.1,105.4,236.6,75.8,258.6z"/>
<path class="st0" d="M319.1,110.5c0.5,3.1,1.2,5.5,1.2,7.9c0.1,43.2,0.1,86.5,0,129.7c0,3.3-1.3,6.6-2.1,10.4
	c-29.5-21.9-58.3-43.3-87.4-65C260.1,166,289.2,138.6,319.1,110.5z"/>
</svg>
