<?xml version="1.0" encoding="utf-8"?>
<!-- Generator: Adobe Illustrator 24.0.1, SVG Export Plug-In . SVG Version: 6.00 Build 0)  -->
<svg version="1.1" id="Capa_1" xmlns="http://www.w3.org/2000/svg" xmlns:xlink="http://www.w3.org/1999/xlink" x="0px" y="0px"
	 viewBox="0 0 385 385" style="enable-background:new 0 0 385 385;" xml:space="preserve">
<style type="text/css">
	.st0{fill:#0197D5;}
</style>
<path class="st0" d="M121.5,106.5c0.1,0.1,0.3,0.1,0.5,0.2c2.3,0.5,4.2,1.8,5.5,3.8c3.2,4.9,6.4,9.7,9.7,14.5
	c5.7,8.5,11.3,17,17,25.5c1,1.4,1.5,2.9,1.6,4.5c0.1,2.9-1,5.3-3.3,7.1s-4.7,3.6-7,5.5c-2.7,2.1-5.3,4.1-7.9,6.2
	c-1.9,1.5-3.1,3.4-3.4,5.9c-0.2,1.7,0.1,3.4,1,4.9c5,9.7,11.2,18.6,18.5,26.7c7.7,8.6,15.8,16.6,24.5,24.2
	c7.1,6.2,14.6,11.5,22.9,15.8c0.7,0.3,1.3,0.8,2,1.1c3.8,2.1,8.2,1.2,10.9-2.3c3.9-4.9,7.7-9.9,11.6-14.9c1.2-1.6,2.8-2.7,4.8-3.2
	c2.5-0.5,4.8-0.1,6.9,1.3c4.7,3.2,9.3,6.2,14,9.4c8.7,5.8,17.3,11.6,26,17.3c1.7,1.2,2.9,2.7,3.6,4.7c0.1,0.4,0.2,0.9,0.3,1.3
	c0,0.8,0,1.7,0,2.5c-0.1,0.1-0.1,0.2-0.1,0.3c-0.1,1-0.4,1.8-0.9,2.6c-3.5,5.9-7,11.8-10.6,17.6c-2.6,4.2-6.4,7.1-11.2,8.6
	c-3.9,1.2-7.9,1.8-12.1,2c-0.3,0-0.6,0.1-1,0.1c-1.5,0-3,0-4.5,0c-0.3-0.1-0.6-0.1-1-0.1c-1.7-0.1-3.5-0.2-5.2-0.5
	c-5.4-0.7-10.7-2-15.8-3.7c-9-3-17.6-7.2-25.8-12.1c-8.8-5.3-17-11.2-24.9-17.7c-8.9-7.3-17.3-15.1-25.4-23.2
	c-6.8-6.8-13.3-13.9-19.5-21.4c-6.8-8.2-13-16.6-18.6-25.7c-4.9-7.9-9-16.2-12.1-25.1c-2.4-6.9-4-14-4.5-21.2c0-0.5-0.2-1-0.3-1.5
	c0-1.8,0-3.8,0-5.6c0.1-0.5,0.3-1.1,0.3-1.6c0.2-2.9,0.7-5.9,1.4-8.8c1.4-6.1,4.7-10.8,10.1-13.9c5.4-3.2,10.8-6.5,16.2-9.7
	c1-0.6,2.1-1,3.2-1.3c0.1,0,0.3-0.1,0.4-0.1C119.9,106.5,120.7,106.5,121.5,106.5z"/>
<path class="st0" d="M199.3,129.8c15.8,0.5,29.5,6,41.2,16.6c10,9.2,16.4,20.5,19.2,33.7c0.6,2.9,1,6,1.2,9c0.1,1.3,0.1,2.6,0.1,3.9
	c0,2-1.4,3.5-3.3,3.4c-2-0.1-3.3-1.5-3.4-3.4c-0.1-1.5-0.1-3-0.2-4.5c-0.5-7.5-2.6-14.7-6.2-21.4c-7.6-14.3-19.2-23.8-34.7-28.5
	c-3.5-1-7.1-1.7-10.8-2c-1.6-0.1-3.3-0.1-4.9-0.3c-1.6-0.1-2.8-1-3.2-2.6c-0.5-1.9,0.9-3.8,2.9-4C198,129.8,198.7,129.8,199.3,129.8
	z"/>
<path class="st0" d="M241,191.3c0,0.8,0.1,1.6,0,2.4c-0.3,1.7-1.8,2.9-3.4,2.7c-1.8-0.1-3.1-1.5-3.1-3.3c-0.1-3.9-0.6-7.7-1.8-11.5
	c-4.1-12.4-14.5-21.7-27.3-24.5c-2.5-0.5-5-0.8-7.5-0.8c-1.6,0-2.9-1-3.3-2.5c-0.5-2.1,1-4.2,3.2-4.1c1.9,0,3.8,0.1,5.7,0.3
	c6.6,0.9,12.8,3.2,18.4,6.9c10,6.8,16.2,16.2,18.6,28.2c0.4,2,0.5,4,0.8,6C241.1,191.3,241,191.3,241,191.3z"/>
<path class="st0" d="M198.7,169.8c10.3,0.4,19.4,7.9,21.6,18c0.4,1.7,0.6,3.5,0.6,5.3c-0.1,1.9-1.4,3.4-3.3,3.4
	c-1.8,0-3.3-1.4-3.3-3.3c-0.1-3.6-1-6.8-3.1-9.7c-2.9-4.1-6.9-6.4-12-7c-0.6-0.1-1.2-0.1-1.8-0.1c-1.8-0.1-3.2-1.6-3.2-3.4
	s1.4-3.2,3.2-3.3C198,169.8,198.4,169.8,198.7,169.8z"/>
</svg>
