<?xml version="1.0" encoding="utf-8"?>
<!-- Generator: Adobe Illustrator 24.0.1, SVG Export Plug-In . SVG Version: 6.00 Build 0)  -->
<svg version="1.1" id="Capa_1" xmlns="http://www.w3.org/2000/svg" xmlns:xlink="http://www.w3.org/1999/xlink" x="0px" y="0px"
	 viewBox="0 0 385 385" style="enable-background:new 0 0 385 385;" xml:space="preserve">
<style type="text/css">
	.st0{fill:#0BAFF3;}
</style>
<g>
	<path class="st0" d="M251.3,113.8c8-5.3,17.4-8,28.1-8c10.9,0,20.3,3.5,28.1,10.6c7.8,7,11.7,16.1,11.7,27.3
		c0,4.3-0.6,8.5-1.8,12.6h14.1c0.9-4.1,1.4-8.5,1.4-13.1c0-14-4.9-25.6-14.8-35c-9.9-9.3-22.3-14-37.4-14c-7.6,0-14.4,0.8-20.6,2.5
		c-6.2,1.7-11.8,4.3-16.7,7.7c-5,3.5-9.4,7.4-13.4,11.7c-3.9,4.4-8,9.7-12.1,15.9l9.8,6.5C235.4,127.4,243.3,119.2,251.3,113.8z"/>
	<polygon class="st0" points="277.6,222 260.2,222 214,263.7 214,273.2 334.5,273.2 334.5,261 234.7,261 	"/>
	<path class="st0" d="M144.3,222c-2.5,6.7-5.6,12.7-9.2,18.1c-5,7.3-11.2,13.2-18.8,17.6c-7.6,4.4-15.8,6.6-24.6,6.6
		s-17.1-2.2-24.7-6.6c-7.6-4.4-13.9-10.3-19-17.7c-5-7.4-9-15.8-11.8-25.4c-2.8-9.5-4.2-19.4-4.2-29.7c0-8.3,0.9-16.4,2.6-24.2
		c1.7-7.8,4.3-15.1,7.8-21.7c3.4-6.6,7.5-12.5,12.2-17.5s10.2-8.9,16.5-11.8c6.3-2.8,13-4.2,20.2-4.2c8.9,0,17.1,2.2,24.7,6.6
		s13.9,10.3,19,17.7c5,7.3,9,15.8,11.8,25.4c0.1,0.4,0.2,0.7,0.3,1.1h14.2c-0.5-2.1-1.1-4.3-1.8-6.4c-3.4-11-8.2-20.7-14.4-29.1
		c-6.2-8.3-13.9-14.9-23.1-19.8c-9.2-4.9-19.3-7.3-30.2-7.3s-21,2.5-30.3,7.4c-9.3,5-17.1,11.6-23.3,19.9s-11,18-14.5,29.1
		c-3.5,11-5.2,22.6-5.2,34.8c0,12.3,1.7,24,5.2,35s8.2,20.7,14.4,29.1c6.2,8.3,13.8,15,23.1,19.9c9.2,4.9,19.3,7.4,30.2,7.4
		s21-2.5,30.3-7.4c9.3-5,17.1-11.6,23.3-20c5.8-7.8,10.3-16.7,13.8-26.8h-14.5V222z"/>
</g>
</svg>
