<?xml version="1.0" encoding="utf-8"?>
<!-- Generator: Adobe Illustrator 24.0.1, SVG Export Plug-In . SVG Version: 6.00 Build 0)  -->
<svg version="1.1" id="Capa_1" xmlns="http://www.w3.org/2000/svg" xmlns:xlink="http://www.w3.org/1999/xlink" x="0px" y="0px"
	 viewBox="0 0 385 385" style="enable-background:new 0 0 385 385;" xml:space="preserve">
<style type="text/css">
	.st0{fill:#1584F9;}
</style>
<g>
	<path class="st0" d="M238.4,192.7c1.9-0.4,3.8-1,5.6-1.8c3.7-1.3,7.5-2.6,11.2-3.9c7.2-2.5,14.2-5.2,21.2-8.3
		c3.5-1.3,7-2.9,10.3-4.6c1.6-0.2,2.9-1.1,4.3-1.7c10.8-5,21.3-10.4,31.1-17.1c4.1-2.8,7.9-5.8,10.2-10.4c3.2-6.4,1.7-11.2-4.8-14.2
		c-2.9-1.3-5.9-2.1-9-2.6c10-1.2,19.8-0.7,29.2,3.3c4,1.7,7.4,4.3,9.9,7.9c1.1,1.5,1.4,3,1,4.8c-1.1,5-4.2,8.9-7.6,12.5
		c-6.9,7.1-15,12.6-23.4,17.6c-20.6,12.4-42.5,21.9-64.9,30.4c-36.1,13.7-73.1,24.3-111,31.8c-23.6,4.7-47.5,8.3-71.6,8.7
		c-14.2,0.2-28.4-0.7-42.2-4.7c-3.7-1.1-7.2-2.5-10.1-5c-3.8-3.2-4.6-7-2.7-11.6c1.8-4.2,4.9-7.6,8.2-10.6c4.9-4.6,10.4-8.5,16.1-12
		c0.5-0.3,0.9-0.8,1.7-0.5c-0.1,0.9-0.8,1.2-1.3,1.7c-1.8,1.7-3.6,3.2-5.1,5.2c-3,4.2-2.3,8.8,2,11.8c3.6,2.5,7.8,3.5,12,4.3
		c10.7,1.9,21.5,1.7,32.3,1.1c4.9-0.2,9.8-0.8,14.7-1.2c5.4-0.4,10.9-1.1,16.3-2c5-0.8,10-1.3,14.9-2.6c0.8-0.1,1.7-0.1,2.5-0.3
		c16.1-3.1,32-7.1,47.9-11.2c10.1-2.6,20.3-5,30.3-8.2C224.6,197.4,231.6,195.3,238.4,192.7z"/>
	<path d="M136.8,218.9c-4.9,1.3-9.9,1.9-14.9,2.6c-5.4,0.8-10.8,1.5-16.3,2c-3.6-2.1-6.9-4.5-9.4-7.9c-0.7-0.9-1.5-0.9-2.5-0.9
		c-8.4-0.1-16.9-0.1-25.3-0.5c-4.9-0.2-8.7-4.1-8.7-9c0-12.1,0-24.2,0-36.3c0-1.1,0.3-2.1,0.8-3c10.6-18.1,21.2-36.2,31.7-54.4
		c2.4-4.1,5.8-5.9,10.4-5.9c17.2,0,34.3,0,51.5,0c1.7,0,2.1,0.4,2.1,2.1c-0.1,24.6,0,49.2-0.1,73.8c0,1.5,0.1,3,0.6,4.5
		c1,3.4,3.3,5,6.8,5c23.7,0,47.4,0,71,0c1.6,0,3,0.1,3.8,1.8c-6.8,2.6-13.8,4.6-20.8,6.5c-0.9,0-1.7-0.1-2.6-0.1
		c-17.2,0-34.5-0.1-51.7,0.1c-5,0-8.8-2.1-12.1-5.4c-2.1-2.1-3.1-4.7-3.1-7.7c0.1-23.5,0-46.9,0.1-70.4c0-1.6-0.4-2-2-2
		c-14,0.1-28,0.1-42.1,0c-2.3,0-3.8,0.9-4.9,2.8c-0.7,1.2-0.9,1.9,1,1.8c4.1-0.1,8.2-0.1,12.2,0c5,0.1,9,3.9,9,9
		c0.1,10.3,0,20.6,0,30.9c0,2.9-1.4,5-4,6.3c-1.8,0.9-3.6,1.2-5.6,1.2c-11.4,0-22.9,0-34.3,0c-1.5,0-2.9-0.1-4-1.2
		c-0.6-0.6-1.3-0.6-1.9,0c-1.8,2-3.6,4-3.6,6.8c-0.1,10.8,0,21.6,0,32.4c0,2.1,0.9,2.8,3.2,2.7c6.1-0.1,12.2-0.3,18.2-0.5
		c0.7,0,1.4,0.2,2.1-0.2c0-0.2,0-0.4-0.1-0.7c-3-13.3,3.8-26.6,16.3-31.7c12.5-5.1,26.8-0.5,33.9,11
		C147.9,194.9,146.9,209.2,136.8,218.9z M94.5,157.6c0-0.1,0-0.1,0-0.2c4.9,0,9.9,0,14.8,0c2.8,0,3.3-0.3,3.3-3.1
		c0-5.1,0-10.1,0-15.2c0-3.4,0-6.9,0-10.3c0-1.4-0.3-2.8-2-2.7c-5.2,0.5-10.4,0.1-15.6,0.2c-1.3,0-2,0.5-2.6,1.6
		c-3.6,6.3-7.2,12.6-10.9,18.9c-1.5,2.5-3.1,5-4.4,7.6c-1.1,2.2-0.3,3.2,2.1,3.2C84.2,157.6,89.3,157.6,94.5,157.6z M118,218
		c10.6,0,19.3-8.6,19.3-19.2c0.1-10.5-8.6-19.2-19.2-19.3s-19.4,8.7-19.4,19.3C98.8,209.4,107.4,218,118,218z"/>
	<path class="st0" d="M165.9,141.1c0-8.2,0.2-16.3-0.1-24.5c-0.1-4.7,1.3-8.6,4.1-12.1c4.8-5.8,10.7-9.3,18.5-9.9
		c13-1,25.9-2.4,38.8-3.6c11.3-1.1,22.6-2.1,33.9-3.2c13.3-1.2,26.6-2.5,39.9-3.7c5.6-0.5,11.1-0.9,16.7-1.5
		c1.3-0.1,1.9,0.2,2.2,1.5c1.5,5.9,3,11.8,2,18c-0.9,5.8-4.1,9.8-9.7,11.7c-1.4,0.5-1.9,1.1-2,2.5c-1,7.6-4.7,13.5-12.5,14.9
		c-0.9,0.2-1.2,0.6-1.3,1.6c-1.1,9.1-5.1,13.6-14.2,15.6c-1.2,0.3-1.2,0.8-1.2,1.8c0.2,6.9-3.4,12.2-9.9,14.5c-3,1-6.2,1-9.3,1.3
		c-15.8,1.6-31.6,3.1-47.4,4.6c-13.2,1.3-26.5,2.4-39.7,3.6c-0.7,0.1-1.4,0.2-2.1,0.2c-4.1,0.5-6.9-1.9-6.9-6.1
		C165.8,159.3,165.9,150.2,165.9,141.1L165.9,141.1z M173.4,137.5C173.4,137.5,173.3,137.5,173.4,137.5c0,7.3,0,14.6,0,21.9
		c0,3.4,1.4,5.3,4.7,6.3c1.5,0.5,3.1,0.5,4.7,0.4c5.6-0.5,11.1-1,16.7-1.5c13.5-1.2,27.1-2.5,40.6-3.7c9-0.8,18.1-1.6,27.1-2.5
		c4.2-0.4,7-4.1,6.5-8.1c-0.2-1.7-0.9-2.4-2.8-2.2c-4.4,0.5-8.8,0.9-13.2,1.3c-10.4,0.9-20.8,1.9-31.2,2.8
		c-9.9,0.9-19.8,1.8-29.7,2.7c-1.1,0.1-2.2-0.1-2.5-1.5c-0.4-1.7,1.4-3.9,3.1-4c5.2-0.5,10.4-0.9,15.6-1.4c13-1.2,26.1-2.4,39.1-3.7
		c10.4-1,20.8-2,31.1-3.3c4.1-0.5,6.1-4.6,5.9-7.9c-0.1-1.5-0.6-2.2-2.4-2c-7.3,0.8-14.7,1.4-22,2c-11.7,1.1-23.5,2.2-35.2,3.2
		c-5.5,0.5-10.9,1.4-16.4,1.5c-1.4,0-2.8-0.1-3-2c-0.1-1.8,1.2-3.4,2.9-3.5c5.4-0.6,10.8-1.1,16.2-1.7c22.3-2.3,44.7-4.6,67-6.9
		c4.4-0.5,7.1-3.8,6.8-8.2c-0.1-1.2-0.5-1.6-1.7-1.5c-11,1-21.9,1.9-32.9,2.9c-13.7,1.2-27.5,2.5-41.2,3.7c-1.2,0.1-2.4,0.1-3.6,0
		c-1.3-0.1-1.8-0.8-1.6-2.2c0.3-2.2,1.9-2.7,3.6-2.9c6.5-1.1,13.1-1.5,19.6-2.1c19.9-1.8,39.9-3.5,59.8-5.3c2.7-0.2,5.4-0.8,7.8-2.2
		c1.8-1,2.7-2.4,2.7-4.5c-0.1-2.6-0.5-5.1-0.9-7.7c-0.5-3-0.5-3-3.5-2.7c-11.2,1.1-22.3,2.2-33.5,3.3c-14.2,1.4-28.5,2.7-42.7,4
		c-15,1.4-30,2.9-45,4.3c-2.9,0.3-5.9,0.6-8.5,2.1c-4.8,2.7-7.8,6.6-7.7,12.4C173.5,123.9,173.4,130.7,173.4,137.5z"/>
	<path d="M34.2,291.3c3.8-5.3,7.5-10.4,11.1-15.5c1.1-1.6,2.4-3,4.6-2.3c2.1,0.7,2.5,2.4,2.5,4.4c0,10.1,0,20.2,0,30.2
		c0,2.6-0.9,3.8-3,4.2c-2.7,0.6-4.7-1-4.7-3.7c0-5.7,0-11.4,0-17.2c0-0.7,0-1.4,0-2.7c-2.6,3.7-4.9,6.8-7.2,10
		c-2.6,3.6-4.9,3.6-7.4-0.1c-2-2.9-4-5.9-6-8.9c-0.7,0.5-0.3,1.2-0.3,1.8c0,5.6,0,11.2,0,16.7c0,2.6-1.3,4.2-3.5,4.2
		s-3.6-1.5-3.6-4.2c0-10.3,0-20.6,0-30.9c0-1.9,0.6-3.4,2.5-4c2-0.6,3.2,0.4,4.3,2C26.9,280.7,30.4,285.9,34.2,291.3z"/>
	<path d="M167.9,292.3c0,5.9-1.3,10.7-4.7,14.8c-6.4,7.9-23.6,8.1-28.7-4.8c-2.5-6.2-2.5-12.6,0-18.8c2.8-7,9.2-10.7,17.1-10.2
		c7.5,0.4,13.2,5.1,15.3,12.5C167.6,288.2,168,290.6,167.9,292.3z M140.3,293c-0.1,2.3,0.2,4.6,1.1,6.7c1.6,4.1,4.6,5.9,9.2,5.9
		c4.2,0,7.1-2.2,8.6-6.1c1.3-3.4,1.4-7,0.7-10.6c-1.1-5.7-4.4-8.4-9.7-8.4s-8.3,2.7-9.6,8.5C140.4,290.3,140.4,291.6,140.3,293z"/>
	<path d="M279,297.1c2.3,3.1,4.5,6,6.7,9c1.7,2.3,1.6,4.3-0.2,5.6c-1.8,1.4-4.2,0.9-5.8-1.2c-2.8-3.6-5.6-7.2-8.3-10.9
		c-0.7-0.9-1.3-1.5-2.5-1.2c-1.4,0.4-0.7,1.5-0.7,2.3c-0.1,2.6,0,5.3,0,7.9c0,2.5-1.4,3.8-3.9,3.7c-2.4,0-3.7-1.3-3.7-3.7
		c0-10.4,0-20.7,0-31.1c0-2.7,1.3-4,3.9-3.9c4.1,0.1,8.2-0.4,12.2,0.3c5.7,1.1,9.4,4.5,10.1,9.4c0.9,6.4-1.2,10.3-7,13.2
		C279.6,296.8,279.4,296.9,279,297.1z M268.3,285.9c0,1.4,0,2.8,0,4.3c0,0.9,0.2,1.3,1.2,1.2c2,0,4,0,5.9-0.6
		c1.8-0.5,3.3-1.5,3.7-3.4c0.5-2,0.4-3.9-1.4-5.2c-2.7-2-5.9-1.8-8.8-1.3c-1.5,0.3-0.3,2.7-0.6,4.2
		C268.2,285.4,268.3,285.7,268.3,285.9z"/>
	<path d="M331.4,292.9c-0.1-2.2,0.1-4.3,0.7-6.4c2.4-9,9.2-13.8,18.4-13.2c8.4,0.6,14.7,6.8,15.7,15.6c0.8,6.7,0,13-4.6,18.3
		c-4.9,5.4-11.3,6.2-17.9,4.5c-6.7-1.7-10.2-6.7-11.7-13.2C331.4,296.8,331.3,294.9,331.4,292.9z M358.9,293
		c0.1-1.5-0.1-2.8-0.4-4.1c-0.2-0.9-0.5-1.8-0.8-2.6c-1.6-4-4.4-5.8-8.8-5.8c-4.3,0-7.3,1.9-8.8,5.8s-1.6,8-0.5,12
		c1.4,5.2,4.7,7.5,10.1,7.3c4.4-0.1,7.8-3.1,8.8-7.9C358.7,296.1,359,294.5,358.9,293z"/>
	<path d="M323.5,299.5c0,2-0.1,4,0,6s-0.8,3.2-2.4,4.2c-10.6,6.3-26.7,2.7-27.8-15.4c-0.3-4.7,0.7-9.2,3.2-13.3
		c5.5-8.9,17.6-9.7,25.5-4.1c1.6,1.1,1.9,3,1,4.6c-1,1.6-2.9,2.2-4.7,1.3c-1.6-0.9-3.2-1.8-5.1-2.1c-5.3-0.8-9,1.1-11.1,6.2
		c-1.8,4.5-1.7,8.9,0.4,13.3c2.4,4.9,7.4,6.8,12.5,4.9c0.9-0.3,1.3-0.7,1.2-1.7c-0.1-1.9-0.1-3.7,0-5.6c0-1-0.4-1.2-1.2-1.2
		c-1.1,0.1-2.1,0.1-3.2,0c-2.1-0.1-3.4-1.5-3.5-3.4s1.2-3.5,3.2-3.6c2.9-0.1,5.9-0.1,8.8,0c2,0.1,3.1,1.5,3.2,3.6
		C323.5,295.2,323.5,297.4,323.5,299.5z"/>
	<path d="M106.3,291.9c5.3-5.9,10-11.3,14.8-16.7c0.8-0.9,1.6-1.7,2.8-1.8c1.5-0.1,2.7,0.5,3.3,1.8c0.7,1.5,0.6,2.9-0.5,4.2
		c-3.3,3.8-6.5,7.6-9.9,11.2c-1,1.1-0.8,1.6,0,2.7c3.3,4.3,6.5,8.7,9.8,13c1.6,2.1,1.5,4.2-0.2,5.5c-1.7,1.3-4.2,1-5.7-0.9
		c-3.1-3.9-6.1-7.9-9.1-11.9c-0.7-1-1-0.9-2-0.1c-3.1,2.6-3.6,5.8-3.3,9.6c0.2,2.7-1.1,4-3.5,4.1c-2.8,0.1-4.2-1.1-4.2-3.9
		c-0.1-4.8,0-9.6,0-14.4c0-5.5,0-11,0-16.5c0-2.8,1.4-4.3,3.8-4.4c2.5,0,3.9,1.5,3.9,4.3C106.3,282.2,106.3,286.7,106.3,291.9z"/>
	<path d="M65.8,293c0-4.9,0-9.9,0-14.8c0-3.3,1.2-4.4,4.3-4.4c5.4,0,10.7,0,16.1,0c2.7,0,4.2,1.2,4.3,3.4c0,2.3-1.5,3.5-4.3,3.5
		c-3.6,0-7.3,0.1-10.9,0c-1.3,0-1.8,0.3-1.7,1.7c0.1,1.8,0.1,3.6,0,5.4c-0.1,1.5,0.5,1.8,1.8,1.7c2.9-0.1,5.7,0,8.6,0
		c3,0,4.6,1.3,4.6,3.6c-0.1,2.2-1.6,3.4-4.5,3.4c-3,0-6,0-9,0c-1.1,0-1.5,0.3-1.5,1.4c0.1,1.9,0.1,3.9,0,5.8
		c-0.1,1.3,0.4,1.6,1.6,1.5c3.7-0.1,7.4,0,11.2,0c2.7,0,4.2,1.3,4.3,3.5c0,2.2-1.5,3.5-4.2,3.5c-5.4,0-10.9,0-16.3,0
		c-3,0-4.2-1.3-4.2-4.4C65.8,302.9,65.8,297.9,65.8,293z"/>
	<path d="M250.8,312.5c-1.8,0.1-2.9-0.8-3.5-2.4c-0.9-2.3-1.9-4.6-2.8-6.9c-0.4-1.1-0.9-1.4-2-1.4c-2.9,0.1-5.9,0.1-8.8,0
		c-1.1,0-1.6,0.4-2,1.4c-0.8,2.3-1.8,4.5-2.7,6.7c-1,2.3-2.9,3.3-4.9,2.4c-1.8-0.8-2.5-2.8-1.7-4.9c4.2-10.5,8.4-20.9,12.5-31.4
		c0.6-1.6,1.7-2.7,3.5-2.7s2.8,1.1,3.5,2.7c4.2,10.4,8.4,20.9,12.5,31.3C255.6,310.3,254,312.5,250.8,312.5z M238.1,287.3
		c-0.6,1.3-1,2.3-1.4,3.4c-0.5,1.4-2,3.2-1.2,3.9c0.9,0.8,3,0.2,4.5,0.3c0.9,0,1-0.4,0.7-1C240,291.7,239.1,289.6,238.1,287.3z"/>
	<path d="M204.7,312.5c-7.5,0-13.1-3.8-15.4-10.9c-2.5-7.5-2.2-14.8,2.2-21.6c5.5-8.4,17.5-8.3,24.6-2.9c1.5,1.2,1.6,2.8,0.7,4.4
		c-0.9,1.6-2.9,2.2-4.7,1.2c-1.9-1.1-3.8-1.9-6-2.2c-4.6-0.4-7.9,1.5-9.5,5.9c-1.5,4.2-1.6,8.4-0.2,12.6c1.9,5.7,6.6,7.9,12.5,5.9
		c1-0.3,1.9-0.9,2.9-1.4c2-1.1,4-0.7,5.1,1s0.5,3.6-1.4,4.9C212.1,311.6,208.9,312.5,204.7,312.5z"/>
	<path d="M255.2,187c-3.7,1.3-7.5,2.6-11.2,3.9c3.3-11.9,13.8-23.5,31.4-20.4c3.9,0.7,7.8,1.5,11.3,3.6c-3.3,1.8-6.8,3.3-10.3,4.6
		c-1.2-0.2-2.4-0.5-3.6-0.5C265.3,177.9,259.2,180.3,255.2,187z"/>
	<path class="st0" d="M131,198.9c0,7.4-5.8,13.4-12.9,13.5c-7.3,0.1-13.3-6-13.3-13.4s6-13.6,13.2-13.5
		C125.2,185.6,131,191.5,131,198.9z M117.9,192.2c-3.6,0-6.6,3.1-6.6,6.8s3,6.9,6.6,6.9c3.5,0,6.6-3.2,6.6-6.8
		C124.5,195.3,121.5,192.2,117.9,192.2z"/>
</g>
</svg>
