<?xml version="1.0" encoding="utf-8"?>
<!-- Generator: Adobe Illustrator 24.0.1, SVG Export Plug-In . SVG Version: 6.00 Build 0)  -->
<svg version="1.1" id="Layer_1" xmlns="http://www.w3.org/2000/svg" xmlns:xlink="http://www.w3.org/1999/xlink" x="0px" y="0px"
	 viewBox="0 0 419.5 419.5" style="enable-background:new 0 0 419.5 419.5;" xml:space="preserve">
<style type="text/css">
	.st0{fill:#FFFFFF;}
</style>
<path class="st0" d="M311.5,173.6c-3.9,0-7.6,0-11.6,0c0-20.2,0-40.2,0-60.8c-1.3,0.5-2.1,0.8-2.9,1.2
	c-42.2,24.6-84.4,49.2-126.6,73.9c-1.2,0.7-2.5,2.6-2.5,3.9c-0.1,41.7-0.1,83.4-0.1,125c0,0.5,0.1,0.9,0.3,1.8
	c5-2.9,9.7-5.7,14.6-8.7c2.1,3.4,4,6.7,6.2,10.2c-8.3,5-16.3,10-24.6,14.5c-1.6,0.9-4.6,0.4-6.2-0.5
	c-43.2-25.3-86.2-50.8-129.4-76.2c-3.6-2.1-5-4.6-5-8.7c0.1-46.5,0.1-93.1,0-139.6c0-4.1,1.6-6.2,5.1-8.1
	c45.5-24.5,91-49,136.3-73.8c6.2-3.4,10.8-3.7,17.1-0.2c41.7,23.1,83.7,45.7,125.6,68.5c2.5,1.4,4,3.1,4,6.2c0,23.5,0,46.9-0.1,70.4
	C311.7,172.8,311.6,173.1,311.5,173.6z M35.9,118.9c-0.1,1.3-0.2,2.1-0.2,2.9c0,41.3,0,82.6,0,123.8c0,2.1,0.8,3.1,2.5,4
	c38.3,22.5,76.5,45.1,114.8,67.7c0.8,0.5,1.7,0.8,2.6,1.2c0.1-0.7,0.2-1.1,0.2-1.5c0-41.8,0-83.6,0.1-125.3c0-2.4-1.3-3.2-2.9-4.2
	c-37.7-22.2-75.4-44.4-113.1-66.7C38.7,120.3,37.5,119.7,35.9,118.9z M103.6,144.3c1.6,1,2.8,1.8,4.1,2.5
	c16.9,9.9,33.7,19.8,50.5,29.9c2.6,1.5,4.5,1.6,7.1,0c30.5-17.9,61.2-35.7,91.8-53.5c11.9-6.9,23.9-13.9,36.2-21.1
	c-1.5-0.9-2.6-1.7-3.8-2.3c-18-9.8-36-19.5-53.9-29.4c-2.2-1.2-3.9-1.2-6.1,0.1c-27.1,15.9-54.2,31.8-81.3,47.7
	C133.5,126.8,118.7,135.4,103.6,144.3z M42.1,108.1c15.9,9.4,31.1,18.3,46.3,27.4c2.2,1.3,3.8,1.4,6,0.1
	c38.5-22.6,77-45.1,115.5-67.7c3.2-1.9,6.4-3.8,9.9-6c-14.7-8-29-15.7-43.1-23.6c-2.3-1.3-3.9-1.1-6.1,0.1
	C137,56.7,103.5,74.8,69.9,93C60.8,97.9,51.7,102.9,42.1,108.1z"/>
<path class="st0" d="M185.5,263.4c0.3-43.8,33.7-79.6,78-83.5c42.2-3.7,81.4,26.7,88.9,68.9c3.1,17.5,0.8,34.3-6.7,50.3
	c-1.1,2.3-0.8,3.7,0.9,5.6c14.5,16.3,29,32.7,43.4,49.2c8.6,9.8,7.7,20.7-2.2,29.1c-3.1,2.7-6.3,5.3-9.5,7.9
	c-8.4,6.8-18.3,5.9-25.6-2.4c-13.7-15.5-27.5-31-41-46.7c-2.4-2.8-4.2-3.3-7.7-1.8c-50.5,22.8-109.2-9.3-117.3-64
	C186,271.9,185.9,267.6,185.5,263.4z M341.8,263.3c0-39.1-32.4-71.5-71.6-71.6c-39.9-0.1-72.4,32.1-72.4,71.4
	c0,40.2,32.1,72.5,72.3,72.3C309.7,335.2,341.6,303.5,341.8,263.3z M336.1,351.6c8,9.1,17,19.4,26.2,29.6c2.6,2.9,5.2,3.1,8.2,0.7
	c3.2-2.5,6.4-5.2,9.5-7.9c4.8-4.1,5.1-7.6,0.8-12.4c-8.2-9.4-16.5-18.7-24.7-28.1c-0.6-0.7-1-1.6-1.4-2.2
	C348.2,338.3,342.3,344.7,336.1,351.6z M320.6,333.3c-0.6-0.4-1.1-0.8-1.7-1.2c2.5,2.8,5,5.7,8.1,9.2c6.5-6.4,12.9-12.6,19.2-18.9
	c-3.2-3.6-5.7-6.5-8.3-9.4c0.4,0.5,0.8,1.1,1.1,1.6C333,320.9,326.8,327.1,320.6,333.3z"/>
<path class="st0" d="M245.5,293.4c-4,0-7.7,0-11.6,0c0-19.8,0-39.5,0-59.4c3.7,0,7.5,0,11.6,0C245.5,253.6,245.5,273.4,245.5,293.4z
	"/>
<path class="st0" d="M263.9,293.4c0-19.9,0-39.6,0-59.5c3.9,0,7.7,0,11.7,0c0,19.8,0,39.5,0,59.5C271.7,293.4,268,293.4,263.9,293.4
	z"/>
<path class="st0" d="M305.6,293.5c-4,0-7.6,0-11.5,0c0-19.8,0-39.6,0-59.6c3.7,0,7.5,0,11.5,0C305.6,253.7,305.6,273.5,305.6,293.5z
	"/>
<path class="st0" d="M222,233.9c2,0,3.7,0,5.6,0c0,19.9,0,39.7,0,59.6c-1.9,0-3.6,0-5.6,0C222,273.6,222,253.9,222,233.9z"/>
<path class="st0" d="M257.5,293.4c-2,0-3.7,0-5.6,0c0-19.8,0-39.5,0-59.5c1.7,0,3.5,0,5.6,0C257.5,253.6,257.5,273.4,257.5,293.4z"
	/>
<path class="st0" d="M282,233.8c2,0,3.6,0,5.5,0c0,19.8,0,39.6,0,59.6c-1.7,0-3.5,0-5.5,0C282,273.6,282,253.8,282,233.8z"/>
<path class="st0" d="M317.5,293.4c-2,0-3.7,0-5.6,0c0-19.8,0-39.5,0-59.4c1.8,0,3.5,0,5.6,0C317.5,253.6,317.5,273.4,317.5,293.4z"
	/>
</svg>
