<?xml version="1.0" encoding="utf-8"?>
<!-- Generator: Adobe Illustrator 24.0.1, SVG Export Plug-In . SVG Version: 6.00 Build 0)  -->
<svg version="1.1" id="_x31_" xmlns="http://www.w3.org/2000/svg" xmlns:xlink="http://www.w3.org/1999/xlink" x="0px" y="0px"
	 viewBox="0 0 512 512" style="enable-background:new 0 0 512 512;" xml:space="preserve">
<style type="text/css">
	.st0{fill:#FFFFFF;}
</style>
<g>
	<g>
		<g>
			<path class="st0" d="M448,213.3H64c-5.9,0-10.7-4.8-10.7-10.7C53.3,90.9,144.3,0,256,0s202.7,90.9,202.7,202.7
				C458.7,208.6,453.9,213.3,448,213.3z M75,192h362c-5.5-95-84.6-170.7-181-170.7S80.5,97,75,192L75,192z"/>
		</g>
	</g>
</g>
<g>
	<g>
		<g>
			<path class="st0" d="M373.2,335.7c-1.7,0-3.4-0.4-4.9-1.2c-5.2-2.7-7.2-9.2-4.5-14.4l64.1-122.3c2.8-5.2,9.2-7.2,14.4-4.5
				c5.2,2.7,7.2,9.2,4.5,14.4l-64.1,122.3C380.8,333.6,377.1,335.7,373.2,335.7L373.2,335.7z"/>
		</g>
	</g>
</g>
<g>
	<g>
		<g>
			<path class="st0" d="M138.6,335.7c-3.8,0-7.6-2.1-9.5-5.7L65.2,207.6c-2.7-5.2-0.7-11.6,4.5-14.4c5.2-2.7,11.6-0.7,14.4,4.5
				L148,320.1c2.7,5.2,0.7,11.7-4.5,14.4C141.9,335.3,140.2,335.7,138.6,335.7L138.6,335.7z"/>
		</g>
	</g>
</g>
<g>
	<g>
		<g>
			<path class="st0" d="M221.4,293.3c-3.9,0-7.7-2.2-9.5-5.9l-40.1-80c-2.6-5.3-0.5-11.7,4.8-14.3c5.2-2.6,11.6-0.5,14.3,4.8
				l40.1,80c2.6,5.3,0.5,11.7-4.8,14.3C224.7,293,223.1,293.3,221.4,293.3L221.4,293.3z"/>
		</g>
	</g>
</g>
<g>
	<g>
		<g>
			<path class="st0" d="M294.6,295.3c-1.4,0-2.9-0.3-4.3-0.9c-5.4-2.4-7.9-8.7-5.5-14.1l36.1-81.9c2.4-5.4,8.7-7.8,14.1-5.5
				c5.4,2.4,7.9,8.7,5.5,14.1l-36.1,81.9C302.6,292.9,298.7,295.3,294.6,295.3L294.6,295.3z"/>
		</g>
	</g>
</g>
<g>
	<g>
		<g>
			<path class="st0" d="M255.9,512c-1.5,0-3.1-0.3-4.5-1l-117.2-54.5c-3.8-1.7-6.2-5.5-6.2-9.7V321.1c0-3.6,1.9-7,4.9-9
				c3.1-2,6.9-2.2,10.2-0.7l117.2,54.5c3.8,1.7,6.2,5.5,6.2,9.7v125.7c0,3.6-1.9,7-4.9,9C259.9,511.4,257.9,512,255.9,512L255.9,512
				z M149.3,440l95.9,44.6V382.4l-95.9-44.5V440z"/>
		</g>
	</g>
</g>
<g>
	<g>
		<g>
			<path class="st0" d="M256.1,512c-2,0-4-0.6-5.7-1.7c-3.1-2-4.9-5.3-4.9-9V375.6c0-4.1,2.4-7.9,6.2-9.7l117.2-54.5
				c3.3-1.5,7.2-1.3,10.2,0.7c3.1,2,4.9,5.4,4.9,9v125.7c0,4.1-2.4,7.9-6.2,9.7L260.6,511C259.1,511.7,257.6,512,256.1,512
				L256.1,512z M266.8,382.4v102.2l95.9-44.6V337.9L266.8,382.4z M373.3,446.8h0.2H373.3z"/>
		</g>
	</g>
</g>
<g>
	<g>
		<g>
			<path class="st0" d="M373.3,331.8c-1.5,0-3.1-0.3-4.5-1l-112.7-52.4l-112.9,52.4c-5.3,2.5-11.7,0.1-14.1-5.2
				c-2.5-5.3-0.2-11.7,5.2-14.2L251.6,257c2.8-1.3,6.1-1.3,9,0l117.2,54.5c5.3,2.5,7.6,8.8,5.2,14.2
				C381.2,329.5,377.3,331.8,373.3,331.8L373.3,331.8z"/>
		</g>
	</g>
</g>
<g>
	<g>
		<g>
			<path class="st0" d="M320,405.3c-5.9,0-10.7-4.8-10.7-10.7v-41.8l-110-52.5c-5.3-2.5-7.6-8.9-5-14.2c2.5-5.3,8.9-7.6,14.2-5
				l115.3,55c3.9,1.6,6.8,5.4,6.8,9.9v48.6C330.7,400.6,325.9,405.3,320,405.3L320,405.3z"/>
		</g>
	</g>
</g>
</svg>
