<?xml version="1.0" encoding="utf-8"?>
<!-- Generator: Adobe Illustrator 24.0.1, SVG Export Plug-In . SVG Version: 6.00 Build 0)  -->
<svg version="1.1" id="Layer_1" xmlns="http://www.w3.org/2000/svg" xmlns:xlink="http://www.w3.org/1999/xlink" x="0px" y="0px"
	 viewBox="0 0 512 512" style="enable-background:new 0 0 512 512;" xml:space="preserve">
<style type="text/css">
	.st0{fill:#FFFFFF;}
</style>
<g>
	<path class="st0" d="M51.5,86.8c1.6-7,3.8-13.7,8.6-19.4c7.6-8.9,17.2-13.3,28.7-13.3c64.8-0.1,129.6-0.2,194.4,0
		c30.4,0.1,46.4,32.3,32,55.7c-0.2,0.3-0.3,0.7-0.7,1.8c1.6,0,3,0,4.3,0c19.3,0,38.6-0.1,57.9,0c15.6,0.1,27.2,7,34.4,21
		c10.8,21-3.7,49-27.1,51.6c-8.5,0.9-17.2,0.2-26.4,0.2c1.3,4.6,3,7.2,7.1,8.6c47,15.7,78,47.4,90.9,95.1
		c11,40.8,3.4,79.2-21.3,113.6c-20.3,28.3-47.9,46.1-81.9,53.4c-29.8,6.3-58.7,2.7-86.3-10.4c-14.3-6.8-26.9-16-38.2-27.1
		c-1.5-1.5-4.1-2.5-6.2-2.5c-29.5-0.2-59.1-0.1-88.6-0.1c-14.9,0-26.5-6-33.9-19.3c-8.2-14.7-5.4-32.2,6.7-43.9
		c0.7-0.6,1.4-1.3,2.4-2.2c-8.7-7.7-13.8-17.1-13.7-28.8c0-11.6,4.8-21,13.6-28.5c-17.5-15.5-18.7-41-0.1-57.9
		c-5.4-4.7-9.5-10.3-11.7-17.2c-7.7-23.8,9.9-47.6,35.6-48.1c6.5-0.1,12.9,0,20,0c-8.2-13.9-8.4-27.4,0.1-41.5c-1.9,0-3.2,0-4.6,0
		c-19.3,0-38.6,0.1-57.9,0c-15.6-0.1-27.4-6.9-34.3-21c-1.8-3.6-2.5-7.8-3.8-11.7C51.5,92.1,51.5,89.4,51.5,86.8z M444.3,322.3
		c0-65.8-53.7-119.5-119.6-119.7c-65.7-0.2-120,53.9-119.9,119.8c0,65.8,53.7,119.5,119.6,119.7
		C390.1,442.3,444.3,388.2,444.3,322.3z M186.4,70c-29.9,0-59.9,0-89.8,0c-3.2,0-6.4-0.1-9.6,0.1c-13.7,1-22.7,14.2-18.5,27.1
		c2.9,9.1,10.8,14.3,21.6,14.3c63.9,0,127.7,0,191.6,0c1.3,0,2.7,0,4-0.2c13.5-1.4,21.9-14.7,17.5-27.4c-3-8.8-10.7-13.9-21.1-13.9
		C250.3,70,218.3,70,186.4,70z M280.2,127.5c-29.7,0-59.4,0-89,0c-3.3,0-6.7-0.1-10,0.1c-13.7,1-22.7,14.2-18.5,27.1
		c2.9,9.1,10.8,14.3,21.6,14.3c63.9,0,127.7,0,191.6,0c1.3,0,2.7,0,4-0.2c13.5-1.4,21.9-14.7,17.5-27.4c-3-8.8-10.7-13.9-21.1-13.9
		C344.4,127.5,312.3,127.5,280.2,127.5z M333.4,185.8c-3.2-0.3-5.5-0.8-7.8-0.8c-64.4,0-128.7-0.1-193.1,0
		c-12.5,0-21.8,8.9-21.9,20.6c-0.1,11.8,9.3,20.9,22,20.9c31,0.1,62,0.1,93-0.1c1.8,0,3.8-1,5.2-2.1c5.5-4.2,10.5-9.1,16.1-13
		c16.1-11.5,34-19.2,53.6-22.3C311,187.3,321.7,186.9,333.4,185.8z M213.8,242.5c-27.6,0-55.3-0.2-82.9,0.1
		c-11.6,0.1-20.4,9.6-20.3,20.9c0.1,11.3,9.1,20.3,20.8,20.5c20.1,0.2,40.2,0,60.3,0.1c2.1,0,3-0.7,3.7-2.7c1.3-4,2.6-8.1,4.5-11.9
		C204.2,260.5,209,251.6,213.8,242.5z M211.7,398.8c0-0.5,0.2-0.8,0-1c-7.7-12-13.8-24.8-17.9-38.5c-0.2-0.8-1.9-1.8-2.8-1.8
		c-20.1-0.1-40.1-0.2-60.2,0c-9.2,0.1-16.8,6.2-19.3,14.6c-4.1,13.6,5.8,26.7,20.6,26.8c25.8,0.1,51.6,0,77.4,0
		C210.3,398.9,211,398.9,211.7,398.8z M189.6,300.1c0.4,0.2,0.1,0-0.1,0c-19.9,0-39.9-0.2-59.8,0.1c-8.7,0.2-15.9,6.6-18.3,14.8
		c-3.9,13.5,6,26.4,20.6,26.5c18.5,0.2,36.9,0,55.4,0c0.9,0,1.7-0.2,2.2-0.3C189.6,327.3,189.6,313.8,189.6,300.1z"/>
	<g>
		<path class="st0" d="M309,237.1l11.4-10.6v22.8c2.9-0.4,5.8-0.5,8.8-0.5c2.8,0,5.6,0.2,8.4,0.5v-12.3l11.4-10.6v25.2
			c1.5,0.5,3,1,4.5,1.6c7.6,2.9,14.5,7,20.5,12.2c6,5.2,11.1,11.4,15.1,18.4c4,7.1,6.7,14.8,8,23l-11,10.8c0-5.3-0.7-10.4-2-15.3
			c-1.4-4.9-3.3-9.5-5.8-13.8c-2.5-4.3-5.5-8.1-9-11.6c-3.5-3.5-7.4-6.5-11.6-8.9c-2.8-1.6-5.7-3-8.7-4.1v42.6l-11.4,11.8v-57.5
			c-2.9-0.5-5.8-0.7-8.8-0.7c-2.9,0-5.7,0.2-8.4,0.6v45.7L309,318.3v-54.6c-3.2,1.1-6.3,2.6-9.2,4.3c-4.2,2.5-8.1,5.5-11.5,9
			c-3.5,3.5-6.5,7.4-9,11.7c-2.5,4.3-4.4,8.9-5.8,13.8c-1.4,4.9-2,10-2,15.3c0,5.3,0.7,10.4,2,15.3c1.4,4.9,3.3,9.5,5.8,13.8
			c2.5,4.3,5.5,8.2,9,11.7c3.5,3.5,7.4,6.5,11.6,9.1c4.2,2.5,8.8,4.5,13.7,5.9c3.8,1.1,7.7,1.7,11.7,2h61.1l-11,11h-115l11-11h20.4
			c-4-2.6-7.8-5.6-11.3-9c-4.1-4.1-7.7-8.7-10.7-13.8c-3-5.1-5.3-10.5-6.9-16.3c-1.7-5.8-2.5-11.9-2.5-18.3c0-6.4,0.8-12.5,2.5-18.4
			c1.7-5.9,4-11.5,6.9-16.6c3-5.1,6.6-9.8,10.7-14.1c4.2-4.2,8.8-7.9,13.9-10.9c4.5-2.6,9.3-4.8,14.5-6.4V237.1z"/>
	</g>
</g>
</svg>
