<?xml version="1.0" encoding="utf-8"?>
<!-- Generator: Adobe Illustrator 24.0.1, SVG Export Plug-In . SVG Version: 6.00 Build 0)  -->
<svg version="1.1" id="Layer_1" xmlns="http://www.w3.org/2000/svg" xmlns:xlink="http://www.w3.org/1999/xlink" x="0px" y="0px"
	 viewBox="0 0 512 512" style="enable-background:new 0 0 512 512;" xml:space="preserve">
<style type="text/css">
	.st0{fill:#FFFFFF;}
</style>
<path class="st0" d="M388.9,484c-1.3,0-2.6-0.3-3.8-0.8c-3.7-1.6-91.2-40.7-91.2-120.7v-67.1c0-4,2.6-7.7,6.3-9l85.5-29.8
	c2-0.7,4.3-0.7,6.2,0l85.5,29.8c3.8,1.3,6.3,4.9,6.3,9v67.1c0,80-87.5,119.1-91.2,120.7C391.6,483.7,390.3,484,388.9,484L388.9,484z
	 M313,302.1v60.5c0,59,60.1,93.3,76,101.4c15.9-8.1,76.1-42.6,76.1-101.4v-60.5l-76.1-26.5L313,302.1z"/>
<path class="st0" d="M381.2,403.6c-0.2,0-0.4,0-0.5,0c-2.8-0.2-5.3-1.5-7-3.7l-31.1-40.2c-3.2-4.2-2.5-10.2,1.7-13.4
	c4.1-3.2,10.1-2.5,13.4,1.7l24.4,31.5l46.8-48.4c3.7-3.7,9.6-3.8,13.4-0.3c3.7,3.7,3.9,9.6,0.3,13.4l-54.4,56.3
	C386.2,402.6,383.8,403.6,381.2,403.6L381.2,403.6z"/>
<path class="st0" d="M398.5,237c-5.3,0-9.5-4.3-9.5-9.5v-84.3l-166.6,83.4c-4.6,2.3-10.4,0.4-12.7-4.3c-2.3-4.6-0.4-10.4,4.3-12.7
	l180.3-90.2c2.9-1.5,6.4-1.3,9.3,0.4c2.8,1.7,4.5,4.8,4.5,8.1v99.7C408,232.8,403.7,237,398.5,237L398.5,237z"/>
<path class="st0" d="M217.9,408c-1.5,0-3-0.4-4.5-1.1l-180.3-95c-3.1-1.6-5.1-4.9-5.1-8.4V127.8c0-3.3,1.7-6.3,4.5-8.1
	c2.8-1.7,6.3-1.9,9.3-0.4l180.3,90.3c3.2,1.6,5.3,4.9,5.3,8.5v180.5c0,3.3-1.8,6.4-4.5,8.1C221.3,407.6,219.6,408,217.9,408z
	 M47,297.8l161.4,85V223.9L47,143.2V297.8z"/>
<path class="st0" d="M398.5,137.3c-1.4,0-2.8-0.4-4.3-1L217.9,48.2l-176.1,88c-4.6,2.3-10.4,0.4-12.7-4.3
	c-2.3-4.7-0.4-10.4,4.3-12.7L213.6,29c2.7-1.3,5.8-1.3,8.5,0l180.6,90.2c4.7,2.3,6.6,8,4.3,12.7
	C405.3,135.3,401.9,137.3,398.5,137.3z"/>
<path class="st0" d="M123.8,251c-5.3,0-9.5-4.3-9.5-9.5v-70.6c0-3.6,2-6.9,5.3-8.5l180.3-90.2c4.6-2.3,10.4-0.4,12.7,4.3
	s0.4,10.4-4.3,12.7l-175.1,87.6v64.7C133.4,246.8,129.1,251,123.8,251L123.8,251z"/>
<path class="st0" d="M217.9,408c-3.4,0-6.7-1.8-8.4-5.1c-2.5-4.6-0.7-10.4,3.9-12.8l38.1-20.2c4.6-2.5,10.4-0.7,12.8,3.9
	c2.5,4.6,0.7,10.4-3.9,12.8l-38.1,20.2C220.9,407.7,219.4,408,217.9,408z"/>
</svg>
