<?xml version="1.0" encoding="utf-8"?>
<!-- Generator: Adobe Illustrator 24.0.1, SVG Export Plug-In . SVG Version: 6.00 Build 0)  -->
<svg version="1.1" id="Layer_1" xmlns="http://www.w3.org/2000/svg" xmlns:xlink="http://www.w3.org/1999/xlink" x="0px" y="0px"
	 viewBox="0 0 512 512" style="enable-background:new 0 0 512 512;" xml:space="preserve">
<style type="text/css">
	.st0{fill:#D10E0D;}
</style>
<g>
	<path class="st0" d="M294,458c-6.8-6.4-13.5-12.9-20.9-19.8c23.1-23.1,45.2-45.1,67.7-67.6c-22.4-22.4-44.5-44.4-66.3-66.2
		c6.9-6.8,13.4-13.2,20.1-19.8c21.5,21.6,43.5,43.7,65.5,65.8c22.3-22.4,43.9-44,65.1-65.3c7.3,7.5,13.7,14,19.9,20.4
		c-20.8,20.6-42.4,42.1-63.7,63.2c22.8,22.8,44.4,44.3,65.4,65.2c-7.7,7.9-14.2,14.5-21.1,21.5c-20.9-20.9-42.4-42.6-65-65.3
		c-3.6,4.1-6.6,7.7-9.8,11c-17.2,17.3-34.4,34.5-51.6,51.7c-1.5,1.5-2.6,3.4-3.9,5.1C294.9,458,294.4,458,294,458z"/>
	<path class="st0" d="M317,126.6c-67.5,0-134.1,0-201.8,0c0,2.4,0,4.7,0,7.1c0,73.1,0,146.3,0,219.4c0,13.6,4.8,18.5,18.6,18.5
		c51.9,0,103.8,0,155.7,0c2.6,0,5.1,0,7.7,0c0.3,0.6,0.6,1.2,0.9,1.8c-8.9,8.6-17.7,17.4-26.8,25.8c-1.3,1.2-4.2,1.1-6.3,1.1
		c-44.3,0.1-88.6,0.1-132.9,0c-27.8,0-46.1-18.4-46.1-46.4c-0.1-72.9,0-145.8,0-218.7c0-2.6,0-5.3,0-8.5c-4.8-0.2-9.1-0.4-13.9-0.7
		c0-9.6,0-18.9,0-28.7c28.8,0,57.1,0,86.1,0c0-5.2-0.1-9.8,0-14.5c0.3-16.7,11.7-28.4,28.3-28.6c19.7-0.2,39.4-0.3,59,0
		c16.3,0.2,27.6,11.8,28.1,28.1c0.1,4.7,0,9.3,0,14.7c28.7,0,57,0,86,0c0,9.9,0,19.1,0,29.1c-4.2,0-8.5,0-13.6,0
		c0,56.1,0,111.4,0,168.2c-10.1-10-19.2-18.7-28-27.8c-1.3-1.4-1.1-4.6-1.1-7c-0.1-41.4,0-82.8,0-124.1C317,132.7,317,130,317,126.6
		z M244.7,83.6c-19.1,0-38,0-57,0c0,4.7,0,8.8,0,13.1c19.2,0,38,0,57,0C244.7,92.2,244.7,88.3,244.7,83.6z"/>
	<path class="st0" d="M144.4,169.8c9.6,0,18.7,0,28.2,0c0,52.7,0,105.2,0,157.9c-9.5,0-18.6,0-28.2,0
		C144.4,275.2,144.4,222.8,144.4,169.8z"/>
	<path class="st0" d="M202,169.8c9.5,0,18.6,0,28.2,0c0,52.5,0,104.9,0,157.8c-9.3,0-18.5,0-28.2,0C202,275.1,202,222.9,202,169.8z"
		/>
	<path class="st0" d="M259.7,277.1c0-37,0-72,0-107.3c9.5,0,18.6,0,28.7,0c0,2.1,0,4.3,0,6.4c0,22.1,0.2,44.3-0.2,66.4
		c-0.1,3.3-1.8,7.3-4.1,9.7C276.6,260.5,268.6,268.2,259.7,277.1z"/>
</g>
</svg>
