<?xml version="1.0" encoding="utf-8"?>
<!-- Generator: Adobe Illustrator 24.0.1, SVG Export Plug-In . SVG Version: 6.00 Build 0)  -->
<svg version="1.1" id="Layer_1" xmlns="http://www.w3.org/2000/svg" xmlns:xlink="http://www.w3.org/1999/xlink" x="0px" y="0px"
	 viewBox="0 0 47.2 39" style="enable-background:new 0 0 47.2 39;" xml:space="preserve">
<style type="text/css">
	.st0{fill:#FFFFFF;}
</style>
<g>
	<path class="st0" d="M38.6,8.3C38.6,8.3,38.6,8.3,38.6,8.3c-0.1,0.8,0.5,1.5,1.3,1.5c0.7,0.2,1.4-0.2,1.7-0.8
		c-0.2,0.2-0.5,0.3-0.8,0.3c-0.4,0-0.7-0.4-0.7-0.8c0.1-0.4,0.5-0.7,1-0.6c0.3,0,0.5,0.2,0.6,0.4c-0.2-0.6-0.6-1-1.2-1
		C39.6,7,38.8,7.5,38.6,8.3z"/>
	<path class="st0" d="M41.7,5.6c-1.1-0.9-2.5-1.4-3.9-1.4c-2.7,0-5.1,1.7-5.9,4.2c-2.7,1.9-5.7,3.3-8.9,4.3
		c-4.3,1.2-8.8,0.1-11.8,0.3c-3.4,0-6.1,2.7-6.1,6.1c0,0.1,0,0.2,0,0.2c0.1,3.4,2.4,6.4,2.4,9.6c0.1,1.9-1.5,3.5-3.4,3.5
		c0,0,0,0-0.1,0c-1.7,0-1.7-0.6-2.3-0.6c-0.2-0.1-0.4,0.1-0.5,0.3c0,0,0,0.1,0,0.1c0,0.8,2.1,1.6,3.2,1.6c1.7,0.1,3.4-0.8,4.4-2.2
		c0.7,1.5,2.2,2.4,3.9,2.3c2.5,0,3.5-1.2,3.5-2.1c0-0.8-0.5-1.1-0.8-1.6c-0.3-0.4-0.5-1-0.5-1.5c0.4,0,0.9,0.1,1.3,0.1
		c1.7,0,2.3-0.7,2.3-1.4c0-0.9-1-0.8-1-2.3c0-1.2,0.6-1.5,1.2-1.5c0.6,0,2.8,0.2,5.6,0.5c0.9,0.1,3.2,1,3.2,4.5v1.3
		c0,2.1,0.8,4.8,4.7,4.8c2.6,0,4.1-1.4,4.1-2.5c0-0.7-0.6-1-0.9-1.4c-0.6-0.8-0.7-1.9-0.5-2.8c0.4,0.1,0.9,0.2,1.3,0.2
		c1.9,0,2.8-0.8,2.8-1.7c0-0.4-0.2-0.6-0.5-0.8c0,0.5-0.9,1.4-2.6,1.2c0,0,2.3-0.5,1.6-1.9c0,0,0,0,0,0v0c0,0,0,0,0,0
		c0.3,0.3,0.5,0.5,0.9,0.6c-0.4-0.3-0.9-0.5-1-1.1c-0.2-1.2-0.1-6.3,1.9-9.2l1.4,0.6c0.3,0.1,0.5,0.2,0.8,0.2c0.4,0,0.7-0.2,0.9-0.5
		c1.3-1.5,2.5-3.1,3.5-4.8C46.1,10.3,43.3,6.8,41.7,5.6z M43.4,8.2c0.1,0,0.3,0.1,0.3,0.3c0,0.1-0.1,0.3-0.3,0.3
		c-0.1,0-0.2-0.1-0.3-0.3C43.2,8.3,43.3,8.2,43.4,8.2z M43.5,9.5c0.2,0,0.3,0.1,0.3,0.3c0,0.2-0.1,0.3-0.3,0.3s-0.3-0.1-0.3-0.3
		C43.2,9.6,43.3,9.5,43.5,9.5z M36.7,4.8C36.8,4.8,37,5,37,5.1c0,0.1-0.1,0.3-0.3,0.3c-0.1,0-0.2-0.1-0.3-0.3
		C36.4,5,36.6,4.8,36.7,4.8z M35.8,6.8C35.8,6.8,35.8,6.8,35.8,6.8c0.8-0.9,1.9-1.4,3.1-1.4c1.6,0,3,0.9,3.7,2.3c0,0,0,0,0,0v0
		c0,0,0,0,0,0c-1-1.7-3.1-2.2-4.8-1.3c-0.4,0.3-0.8,0.6-1.1,1c-0.2,0.2-0.5,0.3-0.8,0.1C35.6,7.4,35.6,7.1,35.8,6.8z M42,8.9
		c-0.3,1.1-1.4,1.7-2.5,1.4c0,0,0,0-0.1,0c-1.1-0.1-1.9-1.1-1.8-2.2C37.9,7,39,6.4,40.1,6.7l0,0c0,0,0,0,0.1,0
		C41.3,6.8,42.1,7.7,42,8.9z M36.7,11.9c0.3,0,0.5,0.3,0.4,0.5c0,0.3-0.2,0.5-0.5,0.5s-0.5-0.2-0.5-0.5
		C36.1,12.2,36.3,11.9,36.7,11.9C36.7,11.9,36.7,11.9,36.7,11.9z M36,8.6c0.3,0,0.5,0.2,0.5,0.5c0,0.3-0.2,0.5-0.5,0.5
		s-0.5-0.2-0.5-0.5S35.7,8.6,36,8.6z M35.2,5.5c0.2,0,0.3,0.1,0.3,0.3s-0.1,0.3-0.3,0.3c-0.2,0-0.3-0.1-0.3-0.3
		C34.9,5.6,35,5.5,35.2,5.5z M35,10.5c0.3,0,0.5,0.2,0.5,0.5c0,0.3-0.2,0.5-0.5,0.5s-0.5-0.2-0.5-0.5S34.7,10.5,35,10.5z M33.7,7.3
		c0-0.2,0.2-0.4,0.4-0.4c0.2,0,0.4,0.2,0.4,0.4c0,0,0,0,0,0c0,0.2-0.2,0.4-0.4,0.4C33.8,7.7,33.7,7.5,33.7,7.3L33.7,7.3z M34,8.6
		c0.3,0,0.5,0.3,0.5,0.5c0,0.3-0.2,0.5-0.5,0.5s-0.5-0.2-0.5-0.5S33.7,8.6,34,8.6z M30.6,10.6c0.3,0,0.5,0.2,0.5,0.5
		s-0.2,0.5-0.5,0.5c-0.3,0-0.5-0.2-0.5-0.5C30,10.8,30.3,10.6,30.6,10.6z M28.3,15c0.3,0,0.5,0.3,0.5,0.5c0,0,0,0,0,0.1
		c0,0.3-0.2,0.5-0.5,0.5v0c-0.3,0-0.5-0.2-0.5-0.5C27.8,15.3,28,15.1,28.3,15z M26.4,13.2c0-0.3,0.2-0.5,0.5-0.5s0.5,0.2,0.5,0.5
		c0,0.3-0.2,0.5-0.5,0.5C26.6,13.7,26.4,13.5,26.4,13.2L26.4,13.2z M23.7,16.5c0.3,0,0.5,0.2,0.5,0.5c0,0.3-0.2,0.5-0.5,0.5
		s-0.5-0.2-0.5-0.5S23.4,16.5,23.7,16.5z M22.6,14C22.6,14,22.6,14,22.6,14c0.3,0,0.5,0.2,0.5,0.5c0,0.3-0.2,0.5-0.5,0.5
		S22,14.8,22,14.5S22.3,14,22.6,14z M17.6,25.8c0.3,0.3,0.5,0.6,0.6,1c0,0-0.6,1.1-2.7,0.7C15.6,27.4,17.8,27,17.6,25.8z M13.6,25
		c-0.7,2.1-0.5,4.3,0.6,6.2c0,0,0,0,0,0h0c0,0,0,0,0,0c-1.2-1-1.9-2.5-2.1-4.1c-0.2-2.8,1.9-5.3,4.7-5.6c0.7,0,1.4,0.1,2.1,0.4
		C18.9,22,15,21.5,13.6,25z M28.1,24.3c-0.5-0.2-0.9-0.5-1.3-0.7c-2.9-1.3-5.7-4.7-9.1-6.5c-3.5-1.9-7-2.3-8.9-0.5
		c-1.2,1.3-1.6,3.1-1.1,4.8v0c-0.8-0.8-1.2-1.9-1.2-3c0-2.3,1.9-4.2,4.2-4.2c2.4-0.1,6.8,0.6,9.6,0.2c0.9,3.9,3.6,6.8,5.9,8.7
		C26.8,23.6,27.5,24,28.1,24.3c0.3,0.2,0.6,0.3,0.8,0.4C28.7,24.6,28.4,24.5,28.1,24.3z M24.7,19.4c0-0.3,0.2-0.5,0.5-0.5
		c0.3,0,0.5,0.2,0.5,0.5c0,0.3-0.2,0.5-0.5,0.5S24.7,19.7,24.7,19.4z M26.7,21.2c0-0.3,0.2-0.5,0.5-0.5c0.3,0,0.5,0.3,0.5,0.5
		c0,0.3-0.2,0.5-0.5,0.5S26.7,21.5,26.7,21.2z M29.7,23.4c-0.3,0-0.5-0.2-0.5-0.5s0.2-0.5,0.5-0.5c0.3,0,0.5,0.2,0.5,0.5
		C30.2,23.2,29.9,23.4,29.7,23.4z M35.3,31.8c-1,1.6-4.1,1.2-4.1,1.2c0.9-0.3,1.7-0.7,2.4-1.2c-1-3.5,0.4-5.4,0.4-5.4h0
		C33.9,26.7,33.3,30.3,35.3,31.8z M32,23.8c0-0.3,0.2-0.5,0.5-0.5c0.3,0,0.5,0.3,0.5,0.5c0,0,0,0,0,0c0,0.3-0.2,0.5-0.5,0.5
		C32.2,24.4,32,24.2,32,23.8C32,23.9,32,23.9,32,23.8z M35.9,24.4c0,0.3-0.2,0.5-0.5,0.5s-0.5-0.2-0.5-0.5c0-0.3,0.2-0.5,0.5-0.5
		C35.6,23.9,35.8,24.1,35.9,24.4L35.9,24.4z M27.5,18.8c-1.4-1.4-2.6-3.1-3.3-5c-0.1-0.2-0.1-0.4,0.1-0.5c0,0,0.1,0,0.1,0
		c0.2-0.1,0.4,0.1,0.5,0.3c0,0,0,0,0,0c0.7,2,1.8,3.8,3.3,5.3c2.1,2.2,5,3.5,8.1,3.6C33,22.4,29.8,21.1,27.5,18.8z M29.7,17.8
		c0-0.3,0.2-0.5,0.5-0.5c0.3,0,0.5,0.2,0.5,0.5c0,0.3-0.2,0.5-0.5,0.5C30,18.3,29.8,18.1,29.7,17.8z M32.3,19.5
		c0-0.3,0.3-0.5,0.5-0.5v0c0,0,0,0,0,0c0.3,0,0.5,0.2,0.5,0.5c0,0,0,0.1,0,0.1c0,0.3-0.3,0.5-0.5,0.4c0,0,0,0,0,0
		C32.5,20,32.3,19.8,32.3,19.5z M35.7,20.9c-0.3,0-0.5-0.2-0.5-0.5s0.2-0.5,0.5-0.5c0,0,0,0,0,0c0.3,0,0.5,0.2,0.5,0.5
		C36.2,20.7,36,20.9,35.7,20.9z M30.2,14.9c-0.8-0.9-1.6-1.9-2.1-3c-0.1-0.2,0-0.4,0.1-0.5c0.2-0.1,0.4,0,0.5,0.1
		c0.6,1.4,1.5,2.7,2.5,3.7c1.5,1.6,3.5,2.7,5.7,3C34.4,18,32,16.8,30.2,14.9z M31.7,13.4c0-0.3,0.2-0.5,0.5-0.5
		c0.3,0,0.5,0.2,0.5,0.5s-0.2,0.5-0.5,0.5C31.9,13.9,31.7,13.7,31.7,13.4z M34.1,15.2c0-0.3,0.2-0.5,0.4-0.6c0.3,0,0.5,0.2,0.5,0.5
		c0,0.3-0.2,0.5-0.5,0.5C34.3,15.7,34.1,15.5,34.1,15.2z M37.5,16.6c0,0.3-0.3,0.5-0.5,0.4c-0.3,0-0.5-0.2-0.5-0.5
		c0-0.3,0.2-0.5,0.5-0.5v0c0,0,0,0,0,0C37.3,16,37.5,16.2,37.5,16.6C37.5,16.5,37.5,16.5,37.5,16.6z M38.7,14.9
		c-1.6-0.2-3.1-0.8-4.3-1.7c-1.1-0.8-2.1-1.8-2.7-3c-0.1-0.2-0.1-0.5,0.1-0.5c0.2-0.1,0.4-0.1,0.5,0.1c0,0,0,0,0,0
		c0.6,1.3,1.5,2.4,2.6,3.3C36,13.9,37.3,14.6,38.7,14.9L38.7,14.9z M39,13.7c-0.3,0-0.5-0.2-0.5-0.5s0.2-0.5,0.5-0.5
		c0.3,0,0.5,0.2,0.5,0.5C39.5,13.5,39.2,13.7,39,13.7z M39.5,11.6c-0.8,0-1.6-0.2-2.3-0.5c-0.2-0.1-0.3-0.3-0.2-0.5
		c0.2-0.2,0.5-0.3,0.6-0.2l0,0c0.6,0.4,1.4,0.6,2.1,0.6c1.3,0.1,2.5-0.8,2.8-2.1C42.3,10.4,41,11.6,39.5,11.6z M40.7,12.8
		c0-0.2,0.2-0.5,0.5-0.5c0,0,0,0,0,0c0.2,0,0.4,0.2,0.4,0.5c0,0.2-0.2,0.5-0.5,0.5S40.7,13,40.7,12.8z M41.5,15.4
		c-0.1,0-0.2-0.1-0.3-0.3c0-0.1,0.1-0.3,0.3-0.3c0.1,0,0.3,0.1,0.3,0.3S41.6,15.4,41.5,15.4z M42.3,14.5c-0.1,0-0.2-0.1-0.3-0.3
		c0-0.1,0.1-0.3,0.3-0.3c0.1,0,0.3,0.1,0.3,0.3C42.6,14.4,42.5,14.5,42.3,14.5z M42.3,11.4c0-0.2,0.2-0.4,0.4-0.4c0,0,0,0,0,0
		c0.2,0,0.4,0.2,0.4,0.4c0,0.2-0.2,0.4-0.4,0.4C42.5,11.8,42.3,11.6,42.3,11.4z M43,13.6c-0.1,0-0.2-0.1-0.3-0.3
		c0-0.1,0.1-0.3,0.3-0.3c0.1,0,0.3,0.1,0.3,0.3C43.3,13.4,43.2,13.6,43,13.6z M43.7,12.7c-0.1,0-0.2-0.1-0.3-0.3
		c0-0.1,0.1-0.3,0.3-0.3c0.1,0,0.3,0.1,0.3,0.3C44,12.5,43.9,12.7,43.7,12.7z M44.4,11.7c-0.1,0-0.2-0.1-0.3-0.3
		c0-0.1,0.1-0.3,0.3-0.3c0.1,0,0.3,0.1,0.3,0.3C44.6,11.6,44.5,11.7,44.4,11.7z M44.8,10.8c-0.1,0-0.2-0.1-0.3-0.3
		c0-0.1,0.1-0.3,0.3-0.3s0.3,0.1,0.3,0.3S45,10.8,44.8,10.8z"/>
</g>
</svg>
