<?xml version="1.0" encoding="utf-8"?>
<!-- Generator: Adobe Illustrator 24.0.1, SVG Export Plug-In . SVG Version: 6.00 Build 0)  -->
<svg version="1.1" id="Layer_1" xmlns="http://www.w3.org/2000/svg" xmlns:xlink="http://www.w3.org/1999/xlink" x="0px" y="0px"
	 viewBox="0 0 512 512" style="enable-background:new 0 0 512 512;" xml:space="preserve">
<style type="text/css">
	.st0{fill:#E2E2E2;}
</style>
<path class="st0" d="M116.5,248.9c0.7-63.7,19.1-124.4,55.8-179.4c5.3-7.9,13.2-10.2,20-5.8c6.8,4.4,8.1,12.5,2.8,20.5
	c-25.1,37.6-41.6,78.6-47.9,123.4c-10.4,73.7,4.4,142.2,44.1,205.2c1.6,2.5,3.3,4.9,4.8,7.4c4.2,7.2,2.7,14.8-3.6,19
	c-6.4,4.2-14.5,2.5-19.3-4.5c-13.8-20.1-25-41.5-33.9-64.2C124.1,332.2,116.7,292.4,116.5,248.9z"/>
<path class="st0" d="M184.5,241.7c0.3-43.3,15.1-92.2,45.5-136.2c2.2-3.3,5.8-6.4,9.4-7.8c5.3-2,10.5-0.1,14.1,4.6
	c3.7,4.9,4,10.1,0.8,15.3c-3.7,6.1-8,11.9-11.4,18.2C198.1,219.3,201,301,251.4,381c2.3,3.6,4.5,7.9,4.7,12
	c0.3,5.9-3.6,10.2-9.3,12.1c-5.9,1.9-11.8,0.2-15.4-5.8c-8.5-14.3-17.6-28.4-24.6-43.4C191.6,323.1,184.5,288.1,184.5,241.7z"/>
<path class="st0" d="M252.7,251.3c0.1-40.9,12.2-78,36-111.2c5.4-7.6,12.9-9.3,19.7-4.9c6.9,4.5,8.2,12.8,2.7,20.4
	c-10.7,15.1-19.2,31.2-24.3,49.1c-14.2,49.9-6.8,96.4,22,139.5c0.2,0.4,0.5,0.7,0.7,1c6.8,9.6,6.4,17.6-0.9,22.6
	c-7.4,5-14.7,2.6-21.6-7.1C264.4,328.4,252.7,291,252.7,251.3z"/>
<path class="st0" d="M320.2,250.8c0.9-27.3,9.1-51.8,25.5-73.6c3.4-4.6,8-7,13.7-5.9c5.4,1,9.1,4.3,10.8,9.6c1.8,5.4-0.6,9.8-3.7,14
	c-13.1,17.8-19.3,37.8-18.6,59.8c0.6,19.3,6.7,36.7,17.8,52.5c2,2.9,4,6.1,4.8,9.4c1.3,5.8-2.6,11.7-8.3,14.1
	c-5.9,2.5-11.9,0.9-16.3-4.7c-12.1-15.6-20-33.2-23.3-52.7C321.5,265.9,321.1,258.3,320.2,250.8z"/>
</svg>
