<?xml version="1.0" encoding="utf-8"?>
<!-- Generator: Adobe Illustrator 24.0.1, SVG Export Plug-In . SVG Version: 6.00 Build 0)  -->
<svg version="1.1" id="Layer_1" xmlns="http://www.w3.org/2000/svg" xmlns:xlink="http://www.w3.org/1999/xlink" x="0px" y="0px"
	 viewBox="0 0 21 19" style="enable-background:new 0 0 21 19;" xml:space="preserve">
<style type="text/css">
	.st0{filter:url(#Adobe_OpacityMaskFilter);}
	.st1{fill-rule:evenodd;clip-rule:evenodd;fill:#FFFFFF;}
	.st2{mask:url(#b_1_);fill-rule:evenodd;clip-rule:evenodd;fill:#FFFFFF;}
	.st3{filter:url(#Adobe_OpacityMaskFilter_1_);}
	.st4{mask:url(#d_1_);fill-rule:evenodd;clip-rule:evenodd;fill:#FFFFFF;}
</style>
<g>
	<g transform="translate(0 .025)">
		<defs>
			<filter id="Adobe_OpacityMaskFilter" filterUnits="userSpaceOnUse" x="0" y="0.1" width="9.7" height="17.3">
				<feColorMatrix  type="matrix" values="1 0 0 0 0  0 1 0 0 0  0 0 1 0 0  0 0 0 1 0"/>
			</filter>
		</defs>
		<mask maskUnits="userSpaceOnUse" x="0" y="0.1" width="9.7" height="17.3" id="b_1_">
			<g class="st0">
				<path id="a_1_" class="st1" d="M0,0.1h9.7v17.3H0V0.1z"/>
			</g>
		</mask>
		<path class="st2" d="M9.3,10.5c0.1,0.9,0.1,1.3-0.6,2.1c-0.7,0.8-2.6,2.2-4.5,3.3c-0.8,0.5-1.9,1-2.7,1.3
			c-0.6,0.2-1.1,0.3-1.4-0.1c-0.2-0.3-0.1-0.5,0-0.8c0.7-1.8,2.6-5.2,3.8-7.3C4,8.8,4.2,8.5,4.3,8.3c1.9-3.3,4.5-7.4,5-8
			c0.1-0.1,0.2-0.2,0.3-0.1c0.1,0.1,0.1,0.2,0.1,0.3c0,0,0,0.1-0.1,0.2C8.8,3.9,8.9,7.2,9.3,10.5"/>
	</g>
	<path class="st1" d="M12.1,11.6c-0.8-0.4-1.2-0.6-1.5-1.6c-0.3-1-0.6-3.4-0.6-5.6c0-0.9,0.1-2.1,0.2-3c0.1-0.6,0.3-1.1,0.8-1.1
		c0.3,0,0.5,0.2,0.7,0.4c1.2,1.5,3.2,4.8,4.4,7c0.1,0.2,0.3,0.4,0.4,0.7c1.9,3.3,4.1,7.6,4.5,8.3c0,0.1,0.1,0.3,0,0.4
		c-0.1,0-0.2,0-0.3-0.1l-0.1-0.1C18,14.4,15.1,12.9,12.1,11.6"/>
	<g transform="translate(.639 12.799)">
		<defs>
			<filter id="Adobe_OpacityMaskFilter_1_" filterUnits="userSpaceOnUse" x="0.1" y="0" width="19.5" height="6">
				<feColorMatrix  type="matrix" values="1 0 0 0 0  0 1 0 0 0  0 0 1 0 0  0 0 0 1 0"/>
			</filter>
		</defs>
		<mask maskUnits="userSpaceOnUse" x="0.1" y="0" width="19.5" height="6" id="d_1_">
			<g class="st3">
				<path id="c_1_" class="st1" d="M0.1,0h19.5v6H0.1V0z"/>
			</g>
		</mask>
		<path class="st4" d="M9.2,0.7c0.7-0.5,1.1-0.8,2.1-0.5c1,0.3,3.2,1.1,5.1,2.2c0.8,0.5,1.8,1.1,2.5,1.7c0.5,0.4,0.8,0.8,0.6,1.3
			c-0.2,0.3-0.4,0.4-0.7,0.4C16.9,6,13.1,6,10.5,6.1H9.8c-3.8,0-8.6-0.2-9.4-0.3c-0.1,0-0.3-0.1-0.3-0.2c0-0.1,0.1-0.2,0.2-0.2
			c0,0,0.1,0,0.2-0.1C3.7,4.3,6.5,2.6,9.2,0.7"/>
	</g>
</g>
</svg>
