<?xml version="1.0" encoding="utf-8"?>
<!-- Generator: Adobe Illustrator 24.0.1, SVG Export Plug-In . SVG Version: 6.00 Build 0)  -->
<svg version="1.1" id="Layer_1" xmlns="http://www.w3.org/2000/svg" xmlns:xlink="http://www.w3.org/1999/xlink" x="0px" y="0px"
	 viewBox="0 0 512 512" style="enable-background:new 0 0 512 512;" xml:space="preserve">
<style type="text/css">
	.st0{fill:#FFFFFF;}
</style>
<g>
	<path class="st0" d="M202.8,213.8l7.2-6.7v14.4c1.8-0.3,3.7-0.3,5.6-0.3c1.8,0,3.5,0.1,5.3,0.3v-7.8l7.2-6.7v16
		c0.9,0.3,1.9,0.6,2.8,1c4.8,1.8,9.2,4.4,13,7.7c3.8,3.3,7,7.2,9.6,11.6c2.5,4.5,4.2,9.4,5.1,14.6l-7,6.8c0-3.4-0.4-6.6-1.3-9.7
		c-0.9-3.1-2.1-6-3.7-8.7c-1.6-2.7-3.5-5.1-5.7-7.3c-2.2-2.2-4.7-4.1-7.3-5.6c-1.8-1-3.6-1.9-5.5-2.6v27l-7.2,7.5v-36.4
		c-1.8-0.3-3.7-0.4-5.6-0.4c-1.8,0-3.6,0.1-5.3,0.4v28.9l-7.2,7.5v-34.6c-2,0.7-4,1.6-5.8,2.7c-2.7,1.6-5.1,3.5-7.3,5.7
		c-2.2,2.2-4.1,4.7-5.7,7.4c-1.6,2.7-2.8,5.6-3.7,8.7c-0.9,3.1-1.3,6.3-1.3,9.7c0,3.4,0.4,6.6,1.3,9.7c0.9,3.1,2.1,6,3.7,8.7
		s3.5,5.2,5.7,7.4c2.2,2.2,4.7,4.1,7.3,5.8c2.7,1.6,5.6,2.8,8.7,3.7c2.4,0.7,4.9,1.1,7.4,1.3h38.7l-7,7H172l7-7h12.9
		c-2.5-1.6-4.9-3.5-7.2-5.7c-2.6-2.6-4.9-5.5-6.8-8.7c-1.9-3.2-3.4-6.6-4.4-10.3c-1.1-3.7-1.6-7.5-1.6-11.6c0-4.1,0.5-7.9,1.6-11.6
		c1.1-3.7,2.5-7.3,4.4-10.5c1.9-3.2,4.2-6.2,6.8-8.9c2.7-2.7,5.6-5,8.8-6.9c2.8-1.6,5.9-3,9.2-4.1L202.8,213.8L202.8,213.8z"/>
</g>
<path class="st0" d="M458.7,274c-1.2,7.2-2.2,14.5-3.6,21.7c-7,34-22.8,63.5-46.1,89c-0.9,1-1.8,2-3,3.4c4.4,0,8.4,0,12.3,0
	c5.7-0.1,11.5-0.3,17.2-0.2c4.9,0,8.2,3.2,8.2,7.8c0,4.6-3.2,7.9-8,8.1c-15.5,0.5-31,0.8-46.5,1.2c-1.1,0-2.2-0.1-3.4-0.2
	c-8.3-0.7-10.4-3.3-8.8-11.4c3.1-15.9,6.3-31.8,9.5-47.7c1.2-5.7,6.3-8.5,11.2-6.4c3.6,1.5,5.4,4.8,4.7,9.2
	c-1.3,7.9-2.9,15.7-4.4,23.5c0.3,0.2,0.6,0.4,0.9,0.6c5.5-7.5,11.4-14.7,16.4-22.6c40.4-63,35.7-145-11.5-203.8
	c-28.2-35.1-64.3-56.8-108.8-63.9c-34.1-5.5-67.2-1.8-98.9,12.8c-2.3,1-4.6,1.9-7,2.7c-5.6,1.8-9.1,0.4-10.8-4.1
	c-1.7-4.3,0.1-8.6,5-10.6c9.9-4,19.8-8.6,30.1-11.3c12.5-3.3,25.5-4.8,38.2-7.1c1-0.2,1.9-0.4,2.9-0.6c8,0,16,0,24,0
	c1.2,0.2,2.4,0.4,3.6,0.7c12.5,2.2,25.4,3.1,37.5,6.8c73.5,22.7,117.4,73,135.1,147.1c1.8,7.4,2.5,15,3.8,22.5
	C458.7,252,458.7,263,458.7,274z"/>
<path class="st0" d="M260.6,448c-6.6-0.7-13.1-1.3-19.7-2.2c-35.9-5-68-18.8-95.8-42c-38.1-31.7-61.3-72.2-67.9-121.3
	c-7.9-58.9,8.3-110.9,47.6-155.7c0.7-0.8,1.5-1.7,2.7-3.1c-1.6-0.1-2.6-0.2-3.6-0.2c-8.4,0.2-16.7,0.4-25.1,0.5
	c-5.8,0.1-9.3-3-9.3-7.9c0-4.7,3.5-7.8,8.9-8c16.1-0.4,32.2-0.8,48.3-1.2c7.4-0.2,10.9,3.8,9.4,11.1c-3.1,15.9-6.3,31.8-9.6,47.7
	c-1.1,5.3-5,8.3-9.5,7.4c-4.8-0.9-7.4-4.9-6.5-10.5c1.3-7.6,2.9-15.2,3.5-23.3c-4.5,5.9-9.2,11.6-13.3,17.8
	c-44.7,65.7-39.3,154.4,13.1,214.1c28.2,32.1,63.5,51.6,105.7,58.3c34.5,5.5,67.9,0.8,99.9-13.7c1-0.5,2-0.9,3.1-1.4
	c5.3-2.3,9.7-1.1,11.8,3.3c2.1,4.4,0.3,9.1-5,11.1c-10.9,4.3-21.7,9.1-33,11.9c-12.9,3.2-26.3,4.4-39.5,6.4
	c-1.2,0.2-2.4,0.4-3.7,0.6C269.1,448,264.9,448,260.6,448z"/>
<path class="st0" d="M367.3,200.9c3,3.6,3.3,8.9,3.4,14.1c0.1,6.7,0.3,13.5-0.1,20.2c-0.2,3.6-1.9,7.1-2.7,10.8
	c-0.3,1.3-0.3,2.7,0,4c0.8,3,2.5,5.9,2.6,8.9c0.2,9.4,0.2,18.7-0.4,28.1c-0.2,3.1-2.9,6-3,9c0,2.9,2.7,5.7,2.9,8.6
	c0.5,9.5,0.9,19,0.4,28.5c-0.5,11.2-9.1,18.9-20.3,18.9c-27.5,0.1-55,0.1-82.5,0c-6.2,0-12.5,0-17.7-4.5c-0.7-0.6-2.6-0.3-3.8,0.1
	c-30.6,9.3-59,4.8-83.5-15.7c-28.4-23.7-38.6-54.8-29.1-90.5c9.6-35.7,34.1-56.9,70.4-64c12.8-2.5,25.6-1.3,38.6,2.1
	c0-5,0-9.7,0-14.4c0.1-12.4,8.3-20.8,20.6-20.9c29-0.1,58-0.1,87,0c11.2,0,19.5,7.4,20.2,18.5c0.6,8.8,0.3,17.7-0.1,26.6
	C370.2,192.9,368.5,196.6,367.3,200.9z M218.7,192.1c-39.4-0.3-71.7,31.8-72.1,71.4c-0.4,39.5,31.9,72.3,71.5,72.5
	c39.3,0.2,72.1-31.8,72.5-70.8C291,224.7,259.2,192.4,218.7,192.1z M306.8,160c-14.1,0-28.2,0-42.4,0c-4.5,0-5.8,1.3-5.8,5.8
	c0,5.7-0.1,11.5,0,17.2c0,1,0.2,2.6,0.9,3c3.9,2.1,7.9,4.9,12.1,5.4c8.1,1,16.5,0.7,24.7,0.7c17.5,0,35-0.1,52.5-0.1
	c3.2,0,5.8-0.8,5.8-4.7c0-7.5,0-15-0.1-22.5c0-3.6-1.7-5-5.4-5C335,160.1,320.9,160,306.8,160z M269.4,336.1c21.4,0,41.6,0,61.8,0
	c6.1,0,12.2,0,18.4,0c3.3,0,5.1-1.6,5-5.1c-0.1-7.2,0-14.5-0.1-21.7c0-4.1-1.3-5.2-5.5-5.2c-16.5,0-33,0-49.4-0.1
	c-2.1,0-3.1,0.8-4,2.5c-4.6,8.5-10.6,16-17.8,22.5C275.3,331.2,272.7,333.2,269.4,336.1z M286.5,208c7.5,9.6,12.9,19.5,16.3,30.5
	c0.2,0.7,1.6,1.5,2.5,1.5c14.8,0.1,29.7,0.1,44.5,0c2.9,0,4.7-1.4,4.7-4.6c0-7.6,0-15.2,0-22.8c0-3.1-1.6-4.6-4.7-4.6
	C329.1,208,308.3,208,286.5,208z M304.3,288c15,0,30.5,0,46,0c3,0,4.4-1.9,4.4-4.9c0-7.1,0-14.2,0-21.3c0-4.6-1.2-5.7-5.8-5.7
	c-11.5,0-23,0-34.5,0c-2.5,0-4.9,0-6.6,0C306.5,266.9,305.4,277.2,304.3,288z"/>
</svg>
