<?xml version="1.0" encoding="utf-8"?>
<!-- Generator: Adobe Illustrator 24.0.1, SVG Export Plug-In . SVG Version: 6.00 Build 0)  -->
<svg version="1.1" id="Layer_1" xmlns="http://www.w3.org/2000/svg" xmlns:xlink="http://www.w3.org/1999/xlink" x="0px" y="0px"
	 viewBox="0 0 512 512" style="enable-background:new 0 0 512 512;" xml:space="preserve">
<style type="text/css">
	.st0{fill:#FFFFFF;}
</style>
<path class="st0" d="M268.4,29c7.7,1.1,15.5,2,23.1,3.4c78.5,14.6,139.8,77,153.6,155.3c7.9,45-1.2,86.8-22.4,126.5
	c-18.1,33.9-41.8,63.7-69.2,90.5c-24.6,24-50.3,47-75.9,70c-4.4,3.9-10.8,5.6-16.3,8.3c-3.5,0-7.1,0-10.6,0
	c-9.5-2.3-16.6-8.3-23.7-14.7c-27.4-24.5-55.3-48.6-80.2-75.7C120.3,363.9,97.2,333,81,297.1c-43-95-0.4-202.5,88.5-247.6
	c22.2-11.3,45.8-17.9,70.7-19.8c1.1-0.1,2.3-0.5,3.4-0.7C251.9,29,260.1,29,268.4,29z M421.4,220.2c0-17-2.6-33.6-7.9-49.7
	C380,68.9,263.8,24.7,171.6,78.9c-68.7,40.4-100.5,126.7-68.3,202.7c13.9,32.8,34.5,61.1,58,87.5c27.5,30.9,59.1,57.5,89.7,85
	c3.7,3.3,6.4,3.3,10.2-0.2c24.6-22.6,49.7-44.7,73.5-68c26.7-26.2,49.9-55.2,66.9-88.8C413.8,272.9,421.4,247.5,421.4,220.2z"/>
<path class="st0" d="M340.6,214c-0.2,46.7-38.2,84.6-84.8,84.4c-46.6-0.2-84.5-38.3-84.3-84.9c0.2-46.9,38.2-84.6,85.2-84.3
	C303.1,129.4,340.7,167.5,340.6,214z M314,214.2c0.3-31.6-25.3-58-56.7-58.4c-32.6-0.4-58.8,25-59.2,57.3
	c-0.4,32,25.4,58.4,57.4,58.7C287.4,272.2,313.6,246.3,314,214.2z"/>
</svg>
