<?xml version="1.0" encoding="utf-8"?>
<!-- Generator: Adobe Illustrator 24.0.1, SVG Export Plug-In . SVG Version: 6.00 Build 0)  -->
<svg version="1.1" id="Layer_1" xmlns="http://www.w3.org/2000/svg" xmlns:xlink="http://www.w3.org/1999/xlink" x="0px" y="0px"
	 viewBox="0 0 511 511" style="enable-background:new 0 0 511 511;" xml:space="preserve">
<style type="text/css">
	.st0{fill:#FFFFFF;}
</style>
<path class="st0" d="M431.4,105.1H162.7c-12.9,0-23.4,10.5-23.4,23.4v37.4l-71-71c-3.1-3.1-8-3.1-11,0s-3.1,8,0,11l92,92l-48.6,48.6
	l-32.4-32.3c-3.1-3.1-8-3.1-11,0s-3.1,8,0,11l64.9,64.9v7c0,17.9,6.1,35.5,17.1,49.6v50.4c0,12.9,10.5,23.4,23.4,23.4h268.6
	c12.9,0,23.4-10.5,23.4-23.4V219.2c0-4.3-3.5-7.8-7.8-7.8s-7.8,3.5-7.8,7.8v178.1c0,4.3-3.5,7.8-7.8,7.8H268.4
	c0.3-0.3,0.6-0.6,0.9-0.9c2-2,3.5-4.3,4.6-6.7c3.1,1.6,6.5,2.3,10.1,2.3c6,0,11.7-2.3,16-6.6c4.2-4.2,6.6-9.9,6.6-16
	c0-3.5-0.9-7-2.3-10.1c2.5-1.1,4.8-2.7,6.7-4.6c4.2-4.2,6.6-9.9,6.6-16c0-6-2.3-11.7-6.6-16L284,303.7c8.3,0.6,16.7-3,21.9-10.1
	l0.2-0.3c8.2-11.2,5.8-27-5.2-35.2c-7-5.2-16.4-12.3-28.2-21c-16.4-12.3-36.7-19-57.2-19h-0.1h-24L155,181.5v-53
	c0-4.3,3.5-7.8,7.8-7.8h81.5v79.7c0,3.1,1.9,6,4.9,7.2c2.9,1.2,6.3,0.5,8.5-1.7l17-17l17,17c3.1,3.1,8,3.1,11,0l17-17l17,17
	c1.5,1.5,3.5,2.3,5.6,2.3c1,0,2-0.2,3-0.6c2.9-1.2,4.9-4.1,4.9-7.2v-79.6h81.5c4.3,0,7.8,3.5,7.8,7.8v28.1c0,4.3,3.5,7.8,7.8,7.8
	s7.8-3.5,7.8-7.8v-28.1C454.8,115.6,444.4,105.1,431.4,105.1z M155,397.2v-34l25.5,25.5l0,0l16.3,16.3h-34
	C158.4,405,155,401.5,155,397.2z M215.5,233.6L215.5,233.6c17.2,0,34.2,5.6,47.9,15.9c11.7,8.8,21.2,15.8,28.2,21
	c4.2,3.1,5.1,9.2,2,13.5l-0.2,0.3c-2.9,3.9-8.3,4.9-12.4,2.3l-30-19.3c-3.9-2.5-9-1.7-12,2c-2.9,3.6-2.7,8.8,0.6,12.1l60.3,60.3
	c1.3,1.3,2,3.1,2,4.9c0,1.9-0.7,3.6-2,4.9s-3.1,2-4.9,2c-1.6,0-3.1-0.5-4.3-1.5l-30.3-30.3c-0.2-0.2-0.4-0.4-0.6-0.5l-3.1-3.1
	c-3.1-3.1-8-3.1-11,0c-3.1,3.1-3.1,8,0,11l33.4,33.4c0.3,0.3,0.7,0.7,1.1,1l8.8,8.8c1.3,1.3,2,3.1,2,4.9c0,1.9-0.7,3.6-2,4.9
	c-1.3,1.3-3.1,2-4.9,2c-1.9,0-3.6-0.7-4.9-2l-8.8-8.8c-0.3-0.4-0.6-0.7-1-1.1l-29.5-29.7c-0.2-0.2-0.4-0.4-0.6-0.5L236,339
	c-3.1-3.1-8-3.1-11,0c-3.1,3.1-3.1,8,0,11l34,34c2.1,2.7,2,6.7-0.5,9.2c-2.7,2.7-7.1,2.7-9.8,0l-9.9-9.9c-0.3-0.4-0.6-0.7-1-1.1
	l-18.8-18.8c-0.2-0.2-0.4-0.4-0.6-0.5l-3.1-3.1c-3.1-3.1-8-3.1-11,0c-3.1,3.1-3.1,8,0,11l23.1,23.1c0.9,1.3,1.5,2.7,1.5,4.3
	c0,1.9-0.7,3.6-2,4.9s-3.1,2-4.9,2c-1.9,0-3.6-0.7-4.9-2L176,362.2l0,0l-19.2-19.3c-12.1-12.1-18.9-28.6-18.9-45.6v-11.3l52.3-52.3
	L215.5,233.6z M127.8,273.8l-16.1-16.1l48.6-48.6l16.1,16.1L127.8,273.8z M334.3,181.5l-9.2-9.2c-3.1-3.1-8-3.1-11,0l-17,17l-17-17
	c-1.5-1.5-3.5-2.3-5.6-2.3c-2,0-4,0.8-5.6,2.3l-9.2,9.2v-60.8h74.3L334.3,181.5L334.3,181.5z"/>
<path class="st0" d="M446.4,345.2h-63.6c-5.5,0-9.9,4.5-9.9,9.9c0,5.5,4.5,9.9,9.9,9.9h63.6c5.5,0,9.9-4.5,9.9-9.9
	C456.4,349.6,451.9,345.2,446.4,345.2z"/>
<path class="st0" d="M446.4,386h-43c-5.5,0-9.9,4.5-9.9,9.9s4.5,9.9,9.9,9.9h43c5.5,0,9.9-4.5,9.9-9.9S451.9,386,446.4,386z"/>
<path class="st0" d="M363.8,386c-2.6,0-5.2,1.1-7.1,2.9c-1.9,1.9-2.9,4.4-2.9,7.1c0,2.6,1.1,5.2,2.9,7.1c1.9,1.9,4.4,2.9,7.1,2.9
	c2.6,0,5.2-1.1,7.1-2.9c1.9-1.9,2.9-4.4,2.9-7.1c0-2.6-1.1-5.2-2.9-7.1C369,387.1,366.4,386,363.8,386z"/>
<path class="st0" d="M500,157.7c-2.6,0-5.2,1.1-7.1,2.9c-1.9,1.9-2.9,4.4-2.9,7.1c0,2.6,1.1,5.2,2.9,7.1s4.4,2.9,7.1,2.9
	s5.2-1.1,7.1-2.9s2.9-4.4,2.9-7.1c0-2.6-1.1-5.2-2.9-7.1C505.2,158.7,502.6,157.7,500,157.7z"/>
</svg>
