<?xml version="1.0" encoding="utf-8"?>
<!-- Generator: Adobe Illustrator 24.0.1, SVG Export Plug-In . SVG Version: 6.00 Build 0)  -->
<svg version="1.1" id="Layer_1" xmlns="http://www.w3.org/2000/svg" xmlns:xlink="http://www.w3.org/1999/xlink" x="0px" y="0px"
	 viewBox="0 0 511 511" style="enable-background:new 0 0 511 511;" xml:space="preserve">
<style type="text/css">
	.st0{fill:#FFFFFF;}
</style>
<path class="st0" d="M435.9,68.6h-37.2c-6.3,0-11.5,5.1-11.5,11.5v118.3H277v-83.5c0-13.6-11-24.7-24.7-24.7h-81.1
	c-13.6,0-24.7,11-24.7,24.7v83.5h-22.6V80.1c0-6.3-5.1-11.5-11.5-11.5H75.1c-6.3,0-11.5,5.1-11.5,11.5v362c0,6.3,5.1,11.5,11.5,11.5
	h37.2c6.3,0,11.5-5.1,11.5-11.5v-56.4h263.3v56.4c0,6.3,5.1,11.5,11.5,11.5h37.2c6.3,0,11.5-5.1,11.5-11.5v-362
	C447.3,73.8,442.2,68.6,435.9,68.6z M167.5,114.9c0-2,1.6-3.7,3.7-3.7h30.1v19.1c0,5.9,4.8,10.6,10.6,10.6c5.9,0,10.6-4.8,10.6-10.6
	v-19.1h29.7c2,0,3.7,1.6,3.7,3.7v83.5h-88.5V114.9z M102.8,432.6H84.7v-343h18.2V432.6z M293.5,307.3L293.5,307.3
	c5.9,0,10.6-4.8,10.6-10.6v-19.1h29.7c2,0,3.7,1.6,3.7,3.7v83.5h-88.5v-83.5c0-2,1.6-3.7,3.7-3.7h30.1v19.1
	C282.9,302.5,287.6,307.3,293.5,307.3z M358.6,364.7v-83.5c0-13.6-11-24.7-24.7-24.7h-81.1c-13.6,0-24.7,11-24.7,24.7v83.5H123.8
	V219.4h22.6H277h110.2v145.4H358.6z M426.3,432.6h-18.2v-343h18.2V432.6z"/>
</svg>
