<?xml version="1.0" encoding="utf-8"?>
<!-- Generator: Adobe Illustrator 24.0.1, SVG Export Plug-In . SVG Version: 6.00 Build 0)  -->
<svg version="1.1" id="_x31_" xmlns="http://www.w3.org/2000/svg" xmlns:xlink="http://www.w3.org/1999/xlink" x="0px" y="0px"
	 viewBox="0 0 512 512" style="enable-background:new 0 0 512 512;" xml:space="preserve">
<style type="text/css">
	.st0{fill:#0A96D8;}
</style>
<g>
	<g>
		<g>
			<path class="st0" d="M434.9,216.2H77.1c-5.5,0-10-4.5-10-10c0-104.1,84.8-188.8,188.9-188.8s188.9,84.7,188.9,188.9
				C444.9,211.8,440.4,216.2,434.9,216.2z M87.3,196.4h337.3C419.5,107.8,345.8,37.3,256,37.3S92.5,107.8,87.3,196.4L87.3,196.4z"/>
		</g>
	</g>
</g>
<g>
	<g>
		<g>
			<path class="st0" d="M373.2,335.7c-1.7,0-3.4-0.4-4.9-1.2c-5.2-2.7-7.2-9.2-4.5-14.4l64.1-122.3c2.8-5.2,9.2-7.2,14.4-4.5
				c5.2,2.7,7.2,9.2,4.5,14.4L382.7,330C380.8,333.6,377.1,335.7,373.2,335.7L373.2,335.7z"/>
		</g>
	</g>
</g>
<g>
	<g>
		<g>
			<path class="st0" d="M146.6,330.3c-3.5,0-7.1-2-8.9-5.3L78.2,210.9c-2.5-4.8-0.7-10.8,4.2-13.4c4.8-2.5,10.8-0.7,13.4,4.2
				l59.5,114.1c2.5,4.8,0.7,10.9-4.2,13.4C149.7,329.9,148.1,330.3,146.6,330.3L146.6,330.3z"/>
		</g>
	</g>
</g>
<g>
	<g>
		<g>
			<path class="st0" d="M223.8,290.8c-3.6,0-7.2-2.1-8.9-5.5l-37.4-74.5c-2.4-4.9-0.5-10.9,4.5-13.3c4.8-2.4,10.8-0.5,13.3,4.5
				l37.4,74.5c2.4,4.9,0.5,10.9-4.5,13.3C226.8,290.5,225.3,290.8,223.8,290.8L223.8,290.8z"/>
		</g>
	</g>
</g>
<g>
	<g>
		<g>
			<path class="st0" d="M292,292.6c-1.3,0-2.7-0.3-4-0.8c-5-2.2-7.4-8.1-5.1-13.1l33.6-76.3c2.2-5,8.1-7.3,13.1-5.1
				s7.4,8.1,5.1,13.1l-33.6,76.3C299.4,290.4,295.8,292.6,292,292.6L292,292.6z"/>
		</g>
	</g>
</g>
<g>
	<g>
		<g>
			<path class="st0" d="M255.9,494.5c-1.4,0-2.9-0.3-4.2-0.9l-109.2-50.8c-3.5-1.6-5.8-5.1-5.8-9V316.7c0-3.4,1.8-6.5,4.6-8.4
				c2.9-1.9,6.4-2.1,9.5-0.7L260,358.4c3.5,1.6,5.8,5.1,5.8,9v117.1c0,3.4-1.8,6.5-4.6,8.4C259.6,494,257.8,494.5,255.9,494.5
				L255.9,494.5z M156.6,427.5l89.4,41.6v-95.2l-89.4-41.5V427.5L156.6,427.5z"/>
		</g>
	</g>
</g>
<g>
	<g>
		<g>
			<path class="st0" d="M256.1,494.5c-1.9,0-3.7-0.6-5.3-1.6c-2.9-1.9-4.6-4.9-4.6-8.4V367.4c0-3.8,2.2-7.4,5.8-9l109.2-50.8
				c3.1-1.4,6.7-1.2,9.5,0.7c2.9,1.9,4.6,5,4.6,8.4v117.1c0,3.8-2.2,7.4-5.8,9l-109.2,50.8C258.9,494.3,257.5,494.5,256.1,494.5
				L256.1,494.5z M266.1,373.8V469l89.4-41.6v-95.1L266.1,373.8z M365.3,433.8h0.2H365.3z"/>
		</g>
	</g>
</g>
<g>
	<g>
		<g>
			<path class="st0" d="M365.3,326.6c-1.4,0-2.9-0.3-4.2-0.9l-105-48.8l-105.2,48.8c-4.9,2.3-10.9,0.1-13.1-4.8
				c-2.3-4.9-0.2-10.9,4.8-13.2L251.9,257c2.6-1.2,5.7-1.2,8.4,0l109.2,50.8c4.9,2.3,7.1,8.2,4.8,13.2
				C372.7,324.5,369,326.6,365.3,326.6L365.3,326.6z"/>
		</g>
	</g>
</g>
<g>
	<g>
		<g>
			<path class="st0" d="M315.6,395.1c-5.5,0-10-4.5-10-10v-39l-102.5-48.9c-4.9-2.3-7.1-8.3-4.7-13.2c2.3-4.9,8.3-7.1,13.2-4.7
				L319,330.6c3.6,1.5,6.3,5,6.3,9.2v45.3C325.6,390.7,321.1,395.1,315.6,395.1L315.6,395.1z"/>
		</g>
	</g>
</g>
</svg>
