<?xml version="1.0" encoding="utf-8"?>
<!-- Generator: Adobe Illustrator 24.0.1, SVG Export Plug-In . SVG Version: 6.00 Build 0)  -->
<svg version="1.1" id="Layer_1" xmlns="http://www.w3.org/2000/svg" xmlns:xlink="http://www.w3.org/1999/xlink" x="0px" y="0px"
	 viewBox="0 0 511 511" style="enable-background:new 0 0 511 511;" xml:space="preserve">
<style type="text/css">
	.st0{fill:#0A96D8;}
</style>
<g>
	<path class="st0" d="M381.9,170.6c-101.8,0-203.7,0-306.1,0c0,8.8,0,17.4,0,26c0,28.1,0,56.3,0,84.4c0,23.4,0.1,46.7,0.1,70.1
		c0,5.4,0,10.9,0,16.3c0,5.2,1.5,7,6.8,7.2c5.8,0.3,11.7,0.2,17.5,0.2c31.7,0,63.4-0.1,95.2-0.2c2.7,0,5.3,0.1,8,0.2
		c4.7,0.1,8.4,3.4,8.6,7.6c0.2,4.7-3,8.5-7.9,8.8c-4.8,0.3-9.6,0.2-14.3,0.2c-23.2,0-46.5-0.1-69.7-0.2c-12.6,0-25.2-0.4-37.8,0.1
		c-11.2,0.4-23.2-7.9-23.3-23.9c-0.1-27,0-53.9,0-80.9c0-27.6,0-55.2,0-82.9c0-13.8-0.4-27.6,0.2-41.4c0.2-4.1,3.1-8.3,5.3-12.2
		c11.2-20.6,22.6-41.2,33.9-61.7c4.7-8.6,9.2-17.3,14.4-25.7c4.9-7.9,12.8-11.4,22-11.4c47.7-0.1,95.4,0,143,0
		c14.6,0,29.2-0.1,43.8-0.1c11.7,0,20.5,4.7,26.3,15.3c15.7,29,31.6,58,47.7,86.8c2.4,4.3,3.6,8.3,3.5,13.1
		c-0.2,15.1-0.1,30.3-0.3,45.4c-0.1,6.2-3.4,9.6-8.8,9.4c-4.9-0.2-7.9-4.1-7.8-10.1c0.1-13.3,0-26.5,0-39.8
		C382.3,171.3,382.1,171,381.9,170.6z M220.5,153.3c0-28.3,0-56.4,0-84.6c-1-0.1-1.8-0.3-2.6-0.3c-27.7,0-55.5,0-83.2,0
		c-4.1,0-6.9,1.8-9,5.5c-13.1,23.8-26.3,47.6-39.4,71.4c-1.4,2.6-2.7,5.2-4.2,8.1C128.6,153.3,174.5,153.3,220.5,153.3z
		 M376.2,153.3c-1.3-2.5-2.4-4.6-3.5-6.6c-3.5-6.4-7.1-12.7-10.6-19.1c-9.8-17.8-19.6-35.5-29.3-53.3c-2.3-4.1-5.5-5.9-10.3-5.9
		c-27.2,0.1-54.4,0-81.6,0c-1,0-2,0.2-3,0.3c0,28.4,0,56.5,0,84.7C283.9,153.3,329.8,153.3,376.2,153.3z"/>
	<path class="st0" d="M355.9,361.4c1,1.3,2.1,2.5,2.9,3.5c-3.2,3.4-6.1,7-9.5,10.1c-12,11.3-24,22.5-36.2,33.5
		c-2.5,2.3-2.5,4.1-1.3,6.8c2.8,6,5.5,12.1,8,18.2c3.7,9,0.6,18.9-7.2,23.3c-8.8,5-18,3.1-24.2-5.2c-6.4-8.6-12.7-17.4-19.2-25.9
		c-1.6-2.2-3.8-4-6-5.6c-8.7-6.5-17.5-13-26.2-19.4c-8-5.9-10-15.3-5.2-24c4.2-7.6,14.4-11.2,22.8-7.7c6.5,2.6,12.9,5.6,19.3,8.5
		c2.3,1,4,1,5.9-1.1c14.2-15.4,28.5-30.7,42.7-46.2c1.4-1.5,2-3.6,2.8-5.2c-1.7,0-3.5,0.5-4.6-0.1c-25.4-13.2-50.8-26.5-76-40
		c-12.1-6.5-14.7-19.9-6-29.8c4.4-5,10.1-6.4,16.3-5.1c34,7.1,67.9,14.4,101.9,21.6c4.1,0.9,8.3,1.6,12.4,2.7c2.3,0.6,3.9,0,5.5-1.8
		c12.9-13.9,26.3-27.4,38.9-41.6c9.3-10.5,31.6-12.2,42.6-4.1c9.4,6.9,11.2,16.9,10.8,27.6c-0.4,10-5.4,17.5-12.8,24.2
		c-13.2,11.9-26,24.2-38.9,36.5c-0.8,0.8-1.3,2.6-1,3.8c7.9,35,15.9,70,23.8,105.1c0.9,3.7,1.8,7.5,2.5,11.2
		c1.9,9.2-2.2,17.1-10.4,20.5c-8.1,3.3-17.9,0.5-22.5-7c-4.4-7.1-8.2-14.6-12.1-21.9c-10.7-19.7-21.2-39.5-32.1-59.1
		c-1.5-2.8-4.6-4.8-6.9-7.1C356.4,360.9,356.2,361.2,355.9,361.4z M426.9,444.3c0.2-0.3,0.3-0.5,0.5-0.8c-1.3-2.6-3.1-5.2-3.8-8
		c-2.5-9.9-4.6-19.9-6.8-29.8c-6.3-27.6-12.6-55.3-19-82.9c-2-8.5,0.7-15.2,7-21.1c13.2-12.3,26.1-24.9,39.5-37
		c6.3-5.7,7.2-12.3,4.9-19.8c-0.4-1.4-1.3-3-2.5-3.9c-5.4-4.3-16.2-3.2-20.9,1.8c-13.1,14-26.2,27.8-39.3,41.8
		c-5.7,6.1-12.5,8.1-20.6,6.2c-3.3-0.8-6.7-1.5-10.1-2.2c-33.6-7.1-67.2-14.2-100.7-21.3c-4.9-1-5.3-0.8-5.6,3.2
		c1.4,0.1,3-0.3,4.1,0.3c6.2,3.1,12.2,6.3,18.3,9.6c19.6,10.4,39.2,20.6,58.7,31.2c11.2,6.1,13.4,19.8,4.8,29.2
		c-16,17.5-32.2,34.9-48.5,52.3c-4.6,4.9-7.5,5.3-13.8,2.5c-7.1-3.2-14.3-6.4-21.5-9.5c-1.4-0.6-3-0.9-4.5-1.4
		c-0.1,0.3-0.3,0.6-0.4,0.9c6.7,5.3,13.5,10.6,20.2,16c5.1,4.2,10.6,8.2,14.8,13.2c6.7,7.9,12.3,16.6,18.5,24.9
		c0.7,1,2.1,1.4,3.2,2.1c-0.1-1.3,0.2-2.8-0.3-4c-3.5-8.3-7.2-16.5-10.8-24.8c-1.7-4-1-7.3,2.3-10.4c17.6-16.2,35-32.5,52.6-48.7
		c10.2-9.5,23.7-7.1,30.4,5.2c13.9,25.7,27.7,51.4,41.7,76.9C421.4,439.1,424.4,441.5,426.9,444.3z"/>
</g>
</svg>
