<?xml version="1.0" encoding="utf-8"?>
<!-- Generator: Adobe Illustrator 24.0.1, SVG Export Plug-In . SVG Version: 6.00 Build 0)  -->
<svg version="1.1" id="Layer_1" xmlns="http://www.w3.org/2000/svg" xmlns:xlink="http://www.w3.org/1999/xlink" x="0px" y="0px"
	 viewBox="0 0 512 512" style="enable-background:new 0 0 512 512;" xml:space="preserve">
<style type="text/css">
	.st0{fill:#0A96D8;}
</style>
<title>parcel track location</title>
<path class="st0" d="M405.9,267.7V145.2c0-2.1-1.1-4.1-3-5.2L211,29.1c-1.9-1.1-4.1-1.1-6,0L13,140c-1.9,1.1-3,3.1-3,5.2v221.7
	c0,2.1,1.1,4.1,3,5.2l192,110.8c1.9,1.1,4.1,1.1,6,0l102.7-59.3c29.9,47.7,92.8,62.2,140.5,32.3c47.7-29.9,62.2-92.8,32.3-140.5
	C468.9,287.3,438.9,269.6,405.9,267.7L405.9,267.7z M208,249.1l-85.9-49.6L302,95.6l85.9,49.6L208,249.1z M208,41.3l82,47.4
	L110.1,192.6L28,145.2L208,41.3z M22,155.6l180,103.9v207.8L22,363.4V155.6z M214,467.3V259.4l180-103.9v112.1
	c-56.2,3.4-99.1,51.6-95.7,107.8c0.8,13,4,25.8,9.6,37.5L214,467.3z M400,459.4c-49.7,0-90-40.3-90-90s40.3-90,90-90s90,40.3,90,90
	l0,0C489.9,419.1,449.7,459.4,400,459.4z"/>
<path class="st0" d="M441.5,309c-22.9-21.8-60.1-21.8-82.9,0c-19.8,18.5-23,48.7-7.5,71l44.1,63.7c1.9,2.7,5.6,3.4,8.3,1.5
	c0.6-0.4,1.1-0.9,1.5-1.5l44-63.7C464.4,357.7,461.2,327.5,441.5,309z M439.2,373.2L400,429.8l-39.1-56.6c-12-17.4-9.5-41,6-55.5
	c18.7-17.4,47.7-17.4,66.4,0C448.7,332.2,451.2,355.8,439.2,373.2z"/>
<path class="st0" d="M400,316.3c-17.9,0-32.5,14.5-32.5,32.5s14.5,32.5,32.5,32.5s32.5-14.5,32.5-32.5l0,0
	C432.5,330.8,417.9,316.3,400,316.3z M400,369.2c-11.3,0-20.5-9.2-20.5-20.5s9.2-20.5,20.5-20.5s20.5,9.2,20.5,20.5l0,0
	C420.5,360,411.3,369.2,400,369.2z"/>
</svg>
