<?xml version="1.0" encoding="utf-8"?>
<!-- Generator: Adobe Illustrator 24.0.1, SVG Export Plug-In . SVG Version: 6.00 Build 0)  -->
<svg version="1.1" id="Layer_1" xmlns="http://www.w3.org/2000/svg" xmlns:xlink="http://www.w3.org/1999/xlink" x="0px" y="0px"
	 viewBox="0 0 511 511" style="enable-background:new 0 0 511 511;" xml:space="preserve">
<style type="text/css">
	.st0{fill:#FFFFFF;}
</style>
<path class="st0" d="M480.1,61.9H136.7c-16.5,0-29.9,13.4-29.9,29.9v47.8L16,48.8c-3.9-3.9-10.2-3.9-14.1,0C-2,52.7-2,59,1.9,62.9
	l117.6,117.6l-62.1,62.1L16,201.3c-3.9-3.9-10.2-3.9-14.1,0c-3.9,3.9-3.9,10.2,0,14.1l83,83l0,9c0,22.9,7.8,45.4,21.9,63.4v64.4
	c0,16.5,13.4,29.9,29.9,29.9h343.3c16.5,0,29.9-13.4,29.9-29.9V207.6c0-5.5-4.5-10-10-10c-5.5,0-10,4.5-10,10v227.6
	c0,5.5-4.5,10-10,10H271.7c0.4-0.4,0.8-0.8,1.2-1.2c2.6-2.6,4.5-5.5,5.9-8.6c3.9,2,8.3,3,12.9,3c7.7,0,14.9-3,20.4-8.4
	c5.4-5.4,8.4-12.7,8.4-20.4c0-4.5-1.1-8.9-3-12.9c3.2-1.4,6.1-3.4,8.6-5.9c5.4-5.4,8.4-12.7,8.4-20.4c0-7.7-3-14.9-8.4-20.4
	l-34.4-34.4c10.6,0.8,21.3-3.8,28-12.9l0.3-0.4c10.5-14.3,7.4-34.5-6.7-45c-8.9-6.6-21-15.7-36-26.9c-21-15.7-46.9-24.3-73.1-24.3
	c0,0-0.1,0-0.1,0l-30.7,0l-46.6-46.6V91.8c0-5.5,4.5-10,10-10h104.2v101.8c0,4,2.4,7.7,6.2,9.2c3.7,1.5,8,0.7,10.9-2.2l21.7-21.7
	l21.7,21.7c3.9,3.9,10.2,3.9,14.1,0l21.7-21.7l21.7,21.7c1.9,1.9,4.5,2.9,7.1,2.9c1.3,0,2.6-0.2,3.8-0.8c3.7-1.5,6.2-5.2,6.2-9.2
	V81.8h104.2c5.5,0,10,4.5,10,10v35.9c0,5.5,4.5,10,10,10c5.5,0,10-4.5,10-10V91.8C510,75.3,496.6,61.9,480.1,61.9z M126.8,435.1
	v-43.4l32.6,32.6c0,0,0,0,0,0l20.8,20.8h-43.4C131.2,445.1,126.8,440.6,126.8,435.1z M204.1,226.1h0.1c21.9,0,43.6,7.2,61.1,20.3
	c15,11.2,27.1,20.2,36,26.9c5.4,4,6.5,11.7,2.5,17.2l-0.3,0.4c-3.7,5-10.6,6.3-15.9,2.9l-38.3-24.7c-5-3.2-11.5-2.2-15.3,2.5
	c-3.7,4.6-3.4,11.3,0.8,15.4l77,77c1.7,1.7,2.6,3.9,2.6,6.3c0,2.4-0.9,4.6-2.6,6.3s-3.9,2.6-6.3,2.6c-2,0-3.9-0.7-5.5-1.9
	l-38.7-38.7c-0.3-0.3-0.5-0.5-0.8-0.7l-3.9-3.9c-3.9-3.9-10.2-3.9-14.1,0c-3.9,3.9-3.9,10.2,0,14.1l42.7,42.7
	c0.4,0.4,0.9,0.9,1.4,1.3l11.3,11.3c1.7,1.7,2.6,3.9,2.6,6.3c0,2.4-0.9,4.6-2.6,6.3s-3.9,2.6-6.3,2.6c-2.4,0-4.6-0.9-6.3-2.6
	l-11.3-11.3c-0.4-0.5-0.8-0.9-1.3-1.4L235,365.3c-0.3-0.3-0.5-0.5-0.8-0.7l-3.9-3.9c-3.9-3.9-10.2-3.9-14.1,0
	c-3.9,3.9-3.9,10.2,0,14.1l43.4,43.4c2.7,3.5,2.5,8.5-0.7,11.7c-3.5,3.5-9.1,3.5-12.5,0l-12.6-12.6c-0.4-0.5-0.8-0.9-1.3-1.4l-24-24
	c-0.3-0.3-0.5-0.5-0.8-0.7l-3.9-3.9c-3.9-3.9-10.2-3.9-14.1,0c-3.9,3.9-3.9,10.2,0,14.1l29.5,29.5c1.2,1.6,1.9,3.5,1.9,5.5
	c0,2.4-0.9,4.6-2.6,6.3c-1.7,1.7-3.9,2.6-6.3,2.6c-2.4,0-4.6-0.9-6.3-2.6l-52.3-52.3c0,0,0,0,0,0L129,365.7
	c-15.4-15.4-24.1-36.6-24.1-58.3l0-14.5l66.8-66.8L204.1,226.1z M92.1,277.4l-20.6-20.6l62.1-62.1l20.6,20.6L92.1,277.4z
	 M355.9,159.5l-11.7-11.7c-3.9-3.9-10.2-3.9-14.1,0l-21.7,21.7l-21.7-21.7c-1.9-1.9-4.5-2.9-7.1-2.9c-2.6,0-5.1,1-7.1,2.9
	l-11.7,11.7V81.8h95V159.5z"/>
<path class="st0" d="M446.1,344.5h-63.9c-5.5,0-10,4.5-10,10c0,5.5,4.5,10,10,10h63.9c5.5,0,10-4.5,10-10
	C456.1,349,451.6,344.5,446.1,344.5z"/>
<path class="st0" d="M446.1,385.6h-43.2c-5.5,0-10,4.5-10,10c0,5.5,4.5,10,10,10h43.2c5.5,0,10-4.5,10-10
	C456.1,390.1,451.6,385.6,446.1,385.6z"/>
<path class="st0" d="M363,385.6c-2.6,0-5.2,1.1-7.1,2.9c-1.9,1.9-2.9,4.4-2.9,7.1c0,2.6,1.1,5.2,2.9,7.1c1.9,1.9,4.4,2.9,7.1,2.9
	c2.6,0,5.2-1.1,7.1-2.9c1.9-1.9,2.9-4.4,2.9-7.1c0-2.6-1.1-5.2-2.9-7.1C368.2,386.7,365.6,385.6,363,385.6z"/>
<path class="st0" d="M500,157.7c-2.6,0-5.2,1.1-7.1,2.9c-1.9,1.9-2.9,4.4-2.9,7.1c0,2.6,1.1,5.2,2.9,7.1s4.4,2.9,7.1,2.9
	s5.2-1.1,7.1-2.9s2.9-4.4,2.9-7.1c0-2.6-1.1-5.2-2.9-7.1C505.2,158.7,502.6,157.7,500,157.7z"/>
</svg>
