<?xml version="1.0" encoding="utf-8"?>
<!-- Generator: Adobe Illustrator 24.0.1, SVG Export Plug-In . SVG Version: 6.00 Build 0)  -->
<svg version="1.1" id="Layer_1" xmlns="http://www.w3.org/2000/svg" xmlns:xlink="http://www.w3.org/1999/xlink" x="0px" y="0px"
	 viewBox="0 0 512 512" style="enable-background:new 0 0 512 512;" xml:space="preserve">
<style type="text/css">
	.st0{fill:#FFFFFF;}
</style>
<path class="st0" d="M405.3,512c-1.5,0-2.9-0.3-4.3-0.9c-4.2-1.8-102.4-45.7-102.4-135.5v-75.4c0-4.5,2.9-8.6,7.1-10.1l96-33.5
	c2.3-0.8,4.8-0.8,7,0l96,33.5c4.3,1.5,7.1,5.5,7.1,10.1v75.4c0,89.8-98.2,133.7-102.4,135.5C408.3,511.7,406.8,512,405.3,512
	L405.3,512z M320,307.8v67.9c0,66.2,67.5,104.8,85.3,113.9c17.8-9.1,85.4-47.8,85.4-113.9v-67.9L405.3,278L320,307.8z"/>
<path class="st0" d="M396.6,421.7c-0.2,0-0.4,0-0.6,0c-3.1-0.2-6-1.7-7.9-4.1l-34.9-45.1c-3.6-4.7-2.8-11.4,1.9-15
	c4.6-3.6,11.3-2.8,15,1.9l27.4,35.4l52.5-54.3c4.1-4.2,10.8-4.3,15.1-0.3c4.2,4.1,4.4,10.8,0.3,15.1l-61.1,63.2
	C402.2,420.6,399.5,421.7,396.6,421.7L396.6,421.7z"/>
<path class="st0" d="M416,234.7c-5.9,0-10.7-4.8-10.7-10.7v-94.7l-187.1,93.6c-5.2,2.6-11.7,0.5-14.3-4.8
	c-2.6-5.2-0.5-11.7,4.8-14.3l202.5-101.3c3.3-1.7,7.2-1.5,10.4,0.5c3.2,1.9,5.1,5.4,5.1,9.1v112C426.7,229.9,421.9,234.7,416,234.7
	L416,234.7z"/>
<path class="st0" d="M213.2,426.7c-1.7,0-3.4-0.4-5-1.2L5.7,318.8c-3.5-1.8-5.7-5.5-5.7-9.4V112c0-3.7,1.9-7.1,5.1-9.1
	c3.1-1.9,7.1-2.1,10.4-0.5L218,203.8c3.6,1.8,5.9,5.5,5.9,9.5V416c0,3.7-2,7.2-5.1,9.1C217,426.2,215.1,426.7,213.2,426.7z
	 M21.3,302.9l181.2,95.4V219.9L21.3,129.3V302.9z"/>
<path class="st0" d="M416,122.7c-1.6,0-3.2-0.4-4.8-1.1l-198-98.9L15.4,121.5c-5.2,2.6-11.7,0.5-14.3-4.8
	c-2.6-5.3-0.5-11.7,4.8-14.3L208.4,1.1c3-1.5,6.5-1.5,9.5,0l202.8,101.3c5.3,2.6,7.4,9,4.8,14.3C423.7,120.5,419.9,122.7,416,122.7z
	"/>
<path class="st0" d="M107.6,250.4c-5.9,0-10.7-4.8-10.7-10.7v-79.3c0-4,2.3-7.7,5.9-9.5L305.3,49.6c5.2-2.6,11.7-0.5,14.3,4.8
	c2.6,5.3,0.5,11.7-4.8,14.3l-196.6,98.4v72.7C118.3,245.7,113.5,250.4,107.6,250.4L107.6,250.4z"/>
<path class="st0" d="M213.2,426.7c-3.8,0-7.5-2-9.4-5.7c-2.8-5.2-0.8-11.7,4.4-14.4l42.8-22.7c5.2-2.8,11.7-0.8,14.4,4.4
	c2.8,5.2,0.8,11.7-4.4,14.4l-42.8,22.7C216.6,426.3,214.9,426.7,213.2,426.7z"/>
</svg>
